<svg id="svg" version="1.1" xmlns="http://www.w3.org/2000/svg" xmlns:xlink="http://www.w3.org/1999/xlink" width="400" height="400" viewBox="0, 0, 400,400"><g id="svgg"><path id="path0" d="M197.200 13.905 C 197.200 14.073,196.795 14.388,196.300 14.605 C 195.805 14.822,195.222 15.405,195.005 15.900 C 194.788 16.395,194.473 16.800,194.305 16.800 C 194.137 16.800,194.000 25.260,194.000 35.600 L 194.000 54.400 192.424 54.400 C 191.557 54.400,190.736 54.580,190.600 54.800 C 190.464 55.020,188.743 55.200,186.776 55.200 C 184.659 55.200,183.200 55.363,183.200 55.600 C 183.200 55.829,182.000 56.000,180.400 56.000 C 178.800 56.000,177.600 56.171,177.600 56.400 C 177.600 56.620,176.610 56.800,175.400 56.800 C 174.190 56.800,173.200 56.980,173.200 57.200 C 173.200 57.420,172.300 57.600,171.200 57.600 C 170.100 57.600,169.200 57.755,169.200 57.945 C 169.200 58.135,168.165 58.411,166.900 58.560 C 164.638 58.825,162.176 59.387,160.600 59.998 C 160.160 60.169,158.990 60.530,158.000 60.800 C 156.149 61.305,154.721 61.828,153.505 62.447 C 153.123 62.641,152.448 62.800,152.005 62.800 C 151.562 62.800,151.200 62.980,151.200 63.200 C 151.200 63.420,150.660 63.600,150.000 63.600 C 149.340 63.600,148.800 63.780,148.800 64.000 C 148.800 64.220,148.451 64.400,148.024 64.400 C 147.597 64.400,147.136 64.580,147.000 64.800 C 146.864 65.020,146.313 65.200,145.776 65.200 C 145.239 65.200,144.800 65.380,144.800 65.600 C 144.800 65.820,144.440 66.000,144.000 66.000 C 143.560 66.000,143.200 66.180,143.200 66.400 C 143.200 66.620,142.750 66.800,142.200 66.800 C 141.650 66.800,141.200 66.980,141.200 67.200 C 141.200 67.420,140.840 67.600,140.400 67.600 C 139.960 67.600,139.600 67.780,139.600 68.000 C 139.600 68.220,139.240 68.400,138.800 68.400 C 138.360 68.400,138.000 68.580,138.000 68.800 C 138.000 69.020,137.640 69.200,137.200 69.200 C 136.760 69.200,136.400 69.380,136.400 69.600 C 136.400 69.820,136.040 70.000,135.600 70.000 C 135.160 70.000,134.800 70.180,134.800 70.400 C 134.800 70.620,134.440 70.800,134.000 70.800 C 133.560 70.800,133.200 70.980,133.200 71.200 C 133.200 71.420,132.840 71.600,132.400 71.600 C 131.960 71.600,131.600 71.780,131.600 72.000 C 131.600 72.220,131.240 72.400,130.800 72.400 C 130.360 72.400,130.000 72.580,130.000 72.800 C 130.000 73.020,129.764 73.200,129.475 73.200 C 129.187 73.200,128.564 73.560,128.092 74.000 C 127.620 74.440,127.061 74.800,126.849 74.800 C 126.274 74.800,124.005 76.155,124.003 76.500 C 124.001 76.665,123.680 76.800,123.288 76.800 C 122.897 76.800,122.317 77.160,122.000 77.600 C 121.683 78.040,121.103 78.400,120.712 78.400 C 120.320 78.400,120.000 78.550,120.000 78.732 C 120.000 78.915,119.505 79.319,118.900 79.630 C 118.295 79.940,117.509 80.511,117.153 80.897 C 116.797 81.284,116.284 81.600,116.014 81.600 C 115.743 81.600,115.017 82.140,114.400 82.800 C 113.783 83.460,113.063 84.000,112.800 84.000 C 112.537 84.000,111.817 84.540,111.200 85.200 C 110.583 85.860,109.957 86.400,109.808 86.400 C 109.659 86.400,108.846 87.120,108.000 88.000 C 107.154 88.880,106.263 89.600,106.020 89.600 C 105.477 89.600,104.244 90.741,97.493 97.495 C 90.443 104.548,88.800 106.304,88.800 106.785 C 88.800 107.007,88.035 107.965,87.100 108.913 C 84.650 111.400,82.400 114.125,82.400 114.607 C 82.400 114.836,82.040 115.283,81.600 115.600 C 81.160 115.917,80.800 116.362,80.800 116.588 C 80.799 116.815,80.354 117.517,79.811 118.149 C 79.267 118.781,78.716 119.636,78.584 120.049 C 78.453 120.462,78.200 120.800,78.022 120.800 C 77.843 120.800,77.473 121.340,77.200 122.000 C 76.927 122.660,76.585 123.200,76.441 123.200 C 76.297 123.200,75.824 124.008,75.390 124.996 C 74.955 125.984,74.465 126.794,74.300 126.796 C 74.135 126.798,74.000 127.070,74.000 127.400 C 74.000 127.730,73.820 128.000,73.600 128.000 C 73.380 128.000,73.200 128.270,73.200 128.600 C 73.200 128.930,73.020 129.200,72.800 129.200 C 72.580 129.200,72.400 129.560,72.400 130.000 C 72.400 130.440,72.220 130.800,72.000 130.800 C 71.780 130.800,71.600 131.160,71.600 131.600 C 71.600 132.040,71.420 132.400,71.200 132.400 C 70.980 132.400,70.800 132.760,70.800 133.200 C 70.800 133.640,70.620 134.000,70.400 134.000 C 70.180 134.000,70.000 134.360,70.000 134.800 C 70.000 135.240,69.820 135.600,69.600 135.600 C 69.380 135.600,69.200 135.960,69.200 136.400 C 69.200 136.840,69.020 137.200,68.800 137.200 C 68.580 137.200,68.400 137.560,68.400 138.000 C 68.400 138.440,68.220 138.800,68.000 138.800 C 67.780 138.800,67.600 139.160,67.600 139.600 C 67.600 140.040,67.420 140.400,67.200 140.400 C 66.980 140.400,66.800 140.760,66.800 141.200 C 66.800 141.640,66.620 142.000,66.400 142.000 C 66.180 142.000,66.000 142.360,66.000 142.800 C 66.000 143.240,65.820 143.600,65.600 143.600 C 65.380 143.600,65.200 143.949,65.200 144.376 C 65.200 144.803,65.020 145.264,64.800 145.400 C 64.580 145.536,64.400 145.997,64.400 146.424 C 64.400 146.851,64.220 147.200,64.000 147.200 C 63.780 147.200,63.600 147.740,63.600 148.400 C 63.600 149.060,63.420 149.600,63.200 149.600 C 62.980 149.600,62.800 149.960,62.800 150.400 C 62.800 150.840,62.620 151.200,62.400 151.200 C 62.180 151.200,62.000 151.740,62.000 152.400 C 62.000 153.060,61.820 153.600,61.600 153.600 C 61.380 153.600,61.200 154.140,61.200 154.800 C 61.200 155.460,61.020 156.000,60.800 156.000 C 60.580 156.000,60.400 156.540,60.400 157.200 C 60.400 157.860,60.240 158.400,60.044 158.400 C 59.848 158.400,59.585 158.985,59.459 159.700 C 58.719 163.907,58.209 166.000,57.924 166.000 C 57.746 166.000,57.600 166.799,57.600 167.776 C 57.600 168.753,57.420 169.664,57.200 169.800 C 56.980 169.936,56.800 170.757,56.800 171.624 C 56.800 172.491,56.620 173.200,56.400 173.200 C 56.180 173.200,56.000 174.089,56.000 175.176 C 56.000 176.263,55.820 177.264,55.600 177.400 C 55.380 177.536,55.200 178.717,55.200 180.024 C 55.200 181.341,55.022 182.400,54.800 182.400 C 54.567 182.400,54.400 183.725,54.400 185.576 C 54.400 187.323,54.220 188.864,54.000 189.000 C 53.777 189.138,53.600 191.004,53.600 193.224 L 53.600 197.200 34.000 197.200 C 21.200 197.200,14.400 197.339,14.400 197.600 C 14.400 197.820,13.981 198.000,13.470 198.000 C 11.497 198.000,9.047 202.668,9.963 204.680 C 10.204 205.207,10.400 205.898,10.400 206.216 C 10.400 207.083,12.042 208.800,12.872 208.800 C 13.272 208.800,13.600 208.980,13.600 209.200 C 13.600 209.461,20.533 209.600,33.600 209.600 L 53.600 209.600 53.600 214.000 C 53.600 216.667,53.758 218.400,54.000 218.400 C 54.231 218.400,54.400 219.659,54.400 221.376 C 54.400 223.013,54.580 224.464,54.800 224.600 C 55.020 224.736,55.200 226.007,55.200 227.424 C 55.200 228.875,55.375 230.000,55.600 230.000 C 55.820 230.000,56.000 230.900,56.000 232.000 C 56.000 233.100,56.180 234.000,56.400 234.000 C 56.620 234.000,56.800 234.810,56.800 235.800 C 56.800 236.790,56.980 237.600,57.200 237.600 C 57.420 237.600,57.600 238.232,57.600 239.005 C 57.600 239.778,57.761 240.723,57.958 241.105 C 58.298 241.767,58.989 244.695,59.466 247.500 C 59.588 248.215,59.848 248.800,60.044 248.800 C 60.240 248.800,60.400 249.340,60.400 250.000 C 60.400 250.660,60.580 251.200,60.800 251.200 C 61.020 251.200,61.200 251.740,61.200 252.400 C 61.200 253.060,61.380 253.600,61.600 253.600 C 61.820 253.600,62.000 254.039,62.000 254.576 C 62.000 255.113,62.180 255.664,62.400 255.800 C 62.620 255.936,62.800 256.487,62.800 257.024 C 62.800 257.561,62.980 258.000,63.200 258.000 C 63.420 258.000,63.600 258.360,63.600 258.800 C 63.600 259.240,63.780 259.600,64.000 259.600 C 64.220 259.600,64.400 260.140,64.400 260.800 C 64.400 261.460,64.580 262.000,64.800 262.000 C 65.020 262.000,65.200 262.360,65.200 262.800 C 65.200 263.240,65.380 263.600,65.600 263.600 C 65.820 263.600,66.000 263.960,66.000 264.400 C 66.000 264.840,66.180 265.200,66.400 265.200 C 66.620 265.200,66.800 265.472,66.800 265.805 C 66.800 266.138,66.968 266.723,67.174 267.105 C 67.379 267.487,67.783 268.385,68.071 269.100 C 68.360 269.815,68.731 270.400,68.898 270.400 C 69.064 270.400,69.200 270.760,69.200 271.200 C 69.200 271.640,69.380 272.000,69.600 272.000 C 69.820 272.000,70.000 272.360,70.000 272.800 C 70.000 273.240,70.180 273.600,70.400 273.600 C 70.620 273.600,70.800 273.870,70.800 274.200 C 70.800 274.530,70.980 274.800,71.200 274.800 C 71.420 274.800,71.600 275.070,71.600 275.400 C 71.600 275.730,71.780 276.000,72.000 276.000 C 72.220 276.000,72.400 276.360,72.400 276.800 C 72.400 277.240,72.580 277.600,72.800 277.600 C 73.020 277.600,73.200 277.960,73.200 278.400 C 73.200 278.840,73.335 279.203,73.500 279.207 C 73.665 279.210,74.334 280.290,74.986 281.607 C 75.639 282.923,76.314 284.000,76.486 284.000 C 76.659 284.000,76.800 284.236,76.800 284.525 C 76.800 284.813,77.115 285.398,77.500 285.825 C 77.885 286.251,78.455 287.095,78.768 287.700 C 79.080 288.305,79.485 288.800,79.668 288.800 C 79.850 288.800,80.000 289.070,80.000 289.400 C 80.000 289.730,80.141 290.000,80.314 290.000 C 80.486 290.000,80.927 290.508,81.294 291.128 C 81.660 291.748,82.599 292.953,83.380 293.806 C 84.161 294.659,84.800 295.501,84.800 295.678 C 84.800 295.854,85.520 296.741,86.400 297.648 C 87.280 298.555,88.000 299.459,88.000 299.657 C 88.000 299.855,88.945 300.972,90.100 302.139 C 91.255 303.305,92.900 305.109,93.756 306.147 C 94.612 307.185,96.390 309.062,97.708 310.317 C 99.026 311.573,100.338 312.825,100.624 313.100 C 100.909 313.375,101.256 313.600,101.394 313.600 C 101.531 313.600,102.704 314.680,104.000 316.000 C 105.296 317.320,106.517 318.400,106.714 318.400 C 106.911 318.400,107.780 319.075,108.644 319.900 C 110.464 321.638,113.438 324.000,113.805 324.000 C 113.944 324.000,114.308 324.225,114.615 324.500 C 115.979 325.723,116.399 326.000,116.895 326.000 C 117.186 326.000,117.683 326.360,118.000 326.800 C 118.317 327.240,118.857 327.600,119.200 327.600 C 119.543 327.600,120.083 327.960,120.400 328.400 C 120.717 328.840,121.257 329.200,121.600 329.200 C 121.943 329.200,122.483 329.560,122.800 330.000 C 123.117 330.440,123.697 330.800,124.088 330.800 C 124.480 330.800,124.800 330.980,124.800 331.200 C 124.800 331.420,125.070 331.600,125.400 331.600 C 125.730 331.600,126.000 331.780,126.000 332.000 C 126.000 332.220,126.270 332.400,126.600 332.400 C 126.930 332.400,127.200 332.580,127.200 332.800 C 127.200 333.020,127.470 333.200,127.800 333.200 C 128.130 333.200,128.400 333.380,128.400 333.600 C 128.400 333.820,128.760 334.000,129.200 334.000 C 129.640 334.000,130.000 334.180,130.000 334.400 C 130.000 334.620,130.360 334.800,130.800 334.800 C 131.240 334.800,131.600 334.980,131.600 335.200 C 131.600 335.420,131.960 335.600,132.400 335.600 C 132.840 335.600,133.200 335.761,133.200 335.958 C 133.200 336.392,138.094 338.800,138.975 338.800 C 139.319 338.800,139.600 338.980,139.600 339.200 C 139.600 339.420,139.960 339.600,140.400 339.600 C 140.840 339.600,141.200 339.780,141.200 340.000 C 141.200 340.220,141.449 340.400,141.754 340.400 C 142.059 340.400,142.824 340.669,143.454 340.998 C 144.084 341.326,145.005 341.596,145.500 341.598 C 145.995 341.599,146.400 341.780,146.400 342.000 C 146.400 342.220,146.760 342.400,147.200 342.400 C 147.640 342.400,148.000 342.580,148.000 342.800 C 148.000 343.020,148.540 343.200,149.200 343.200 C 149.860 343.200,150.400 343.380,150.400 343.600 C 150.400 343.820,150.940 344.000,151.600 344.000 C 152.260 344.000,152.800 344.180,152.800 344.400 C 152.800 344.620,153.239 344.800,153.776 344.800 C 154.313 344.800,154.864 344.980,155.000 345.200 C 155.136 345.420,155.777 345.600,156.424 345.600 C 157.071 345.600,157.600 345.780,157.600 346.000 C 157.600 346.220,158.039 346.400,158.576 346.400 C 159.113 346.400,159.664 346.580,159.800 346.800 C 159.936 347.020,160.577 347.200,161.224 347.200 C 161.871 347.200,162.400 347.380,162.400 347.600 C 162.400 347.820,163.019 348.000,163.776 348.000 C 164.533 348.000,165.264 348.180,165.400 348.400 C 165.536 348.620,166.256 348.800,167.000 348.800 C 167.744 348.800,168.464 348.980,168.600 349.200 C 168.736 349.420,169.647 349.600,170.624 349.600 C 171.601 349.600,172.400 349.780,172.400 350.000 C 172.400 350.220,173.300 350.400,174.400 350.400 C 175.500 350.400,176.400 350.580,176.400 350.800 C 176.400 351.026,177.533 351.200,179.000 351.200 C 180.467 351.200,181.600 351.374,181.600 351.600 C 181.600 351.837,183.067 352.000,185.200 352.000 C 187.333 352.000,188.800 352.163,188.800 352.400 C 188.800 352.626,189.933 352.800,191.400 352.800 L 194.000 352.800 194.000 371.500 L 194.001 390.200 194.905 391.200 C 197.472 394.041,202.528 394.041,205.095 391.200 L 205.999 390.200 206.000 371.500 L 206.000 352.800 211.576 352.800 C 214.863 352.800,217.254 352.636,217.400 352.400 C 217.536 352.180,219.066 352.000,220.800 352.000 C 222.534 352.000,224.064 351.820,224.200 351.600 C 224.336 351.380,225.517 351.200,226.824 351.200 C 228.141 351.200,229.200 351.022,229.200 350.800 C 229.200 350.580,230.100 350.400,231.200 350.400 C 232.300 350.400,233.200 350.220,233.200 350.000 C 233.200 349.780,234.010 349.600,235.000 349.600 C 235.990 349.600,236.800 349.420,236.800 349.200 C 236.800 348.980,237.509 348.800,238.376 348.800 C 239.243 348.800,240.064 348.620,240.200 348.400 C 240.336 348.180,240.966 348.000,241.600 348.000 C 242.234 348.000,242.864 347.820,243.000 347.600 C 243.136 347.380,243.777 347.200,244.424 347.200 C 245.071 347.200,245.600 347.020,245.600 346.800 C 245.600 346.580,246.140 346.400,246.800 346.400 C 247.460 346.400,248.000 346.220,248.000 346.000 C 248.000 345.780,248.540 345.600,249.200 345.600 C 249.860 345.600,250.400 345.420,250.400 345.200 C 250.400 344.980,250.940 344.800,251.600 344.800 C 252.260 344.800,252.800 344.620,252.800 344.400 C 252.800 344.180,253.340 344.000,254.000 344.000 C 254.660 344.000,255.200 343.820,255.200 343.600 C 255.200 343.380,255.650 343.200,256.200 343.200 C 256.750 343.200,257.200 343.020,257.200 342.800 C 257.200 342.580,257.560 342.400,258.000 342.400 C 258.440 342.400,258.800 342.240,258.800 342.044 C 258.800 341.848,259.385 341.593,260.100 341.478 C 261.887 341.190,264.400 340.269,264.400 339.902 C 264.400 339.736,264.760 339.600,265.200 339.600 C 265.640 339.600,266.000 339.420,266.000 339.200 C 266.000 338.980,266.360 338.800,266.800 338.800 C 267.240 338.800,267.600 338.620,267.600 338.400 C 267.600 338.180,267.960 338.000,268.400 338.000 C 268.840 338.000,269.200 337.820,269.200 337.600 C 269.200 337.380,269.560 337.200,270.000 337.200 C 270.440 337.200,270.800 337.020,270.800 336.800 C 270.800 336.580,271.160 336.400,271.600 336.400 C 272.040 336.400,272.400 336.254,272.400 336.075 C 272.400 335.896,273.030 335.502,273.800 335.200 C 274.570 334.898,275.200 334.504,275.200 334.325 C 275.200 334.146,275.560 334.000,276.000 334.000 C 276.440 334.000,276.800 333.820,276.800 333.600 C 276.800 333.380,277.036 333.200,277.325 333.200 C 277.613 333.200,278.236 332.840,278.708 332.400 C 279.180 331.960,279.844 331.600,280.183 331.600 C 280.522 331.600,280.800 331.420,280.800 331.200 C 280.800 330.980,281.036 330.800,281.325 330.800 C 281.613 330.800,282.236 330.440,282.708 330.000 C 283.180 329.560,283.742 329.200,283.956 329.200 C 284.171 329.200,284.460 328.840,284.600 328.400 C 284.740 327.960,284.993 327.600,285.163 327.600 C 285.764 327.600,286.400 325.536,286.400 323.581 C 286.400 322.492,286.220 321.600,286.000 321.600 C 285.780 321.600,285.600 321.317,285.600 320.971 C 285.600 319.863,283.460 318.400,281.839 318.400 C 281.304 318.400,280.785 318.175,280.686 317.900 C 280.541 317.500,280.335 317.500,279.658 317.900 C 279.192 318.175,278.358 318.400,277.805 318.400 C 277.252 318.400,276.800 318.580,276.800 318.800 C 276.800 319.020,276.530 319.200,276.200 319.200 C 275.870 319.200,275.600 319.380,275.600 319.600 C 275.600 319.820,275.280 320.000,274.888 320.000 C 274.497 320.000,273.917 320.360,273.600 320.800 C 273.283 321.240,272.703 321.600,272.312 321.600 C 271.920 321.600,271.600 321.780,271.600 322.000 C 271.600 322.220,271.240 322.400,270.800 322.400 C 270.360 322.400,270.000 322.580,270.000 322.800 C 270.000 323.020,269.764 323.200,269.475 323.200 C 269.187 323.200,268.564 323.560,268.092 324.000 C 267.620 324.440,267.045 324.800,266.814 324.800 C 266.583 324.800,264.335 325.790,261.818 327.000 C 259.301 328.210,256.962 329.200,256.621 329.200 C 256.279 329.200,256.000 329.380,256.000 329.600 C 256.000 329.820,255.640 330.000,255.200 330.000 C 254.760 330.000,254.400 330.180,254.400 330.400 C 254.400 330.620,253.860 330.800,253.200 330.800 C 252.540 330.800,252.000 330.980,252.000 331.200 C 252.000 331.420,251.640 331.600,251.200 331.600 C 250.760 331.600,250.400 331.780,250.400 332.000 C 250.400 332.220,249.860 332.400,249.200 332.400 C 248.540 332.400,248.000 332.580,248.000 332.800 C 248.000 333.020,247.460 333.200,246.800 333.200 C 246.140 333.200,245.600 333.380,245.600 333.600 C 245.600 333.820,245.161 334.000,244.624 334.000 C 244.087 334.000,243.536 334.180,243.400 334.400 C 243.264 334.620,242.713 334.800,242.176 334.800 C 241.639 334.800,241.200 334.980,241.200 335.200 C 241.200 335.420,240.480 335.600,239.600 335.600 C 238.720 335.600,238.000 335.780,238.000 336.000 C 238.000 336.220,237.280 336.400,236.400 336.400 C 235.520 336.400,234.800 336.580,234.800 336.800 C 234.800 337.020,234.080 337.200,233.200 337.200 C 232.320 337.200,231.600 337.380,231.600 337.600 C 231.600 337.820,230.801 338.000,229.824 338.000 C 228.847 338.000,227.936 338.180,227.800 338.400 C 227.664 338.620,226.573 338.800,225.376 338.800 C 224.179 338.800,223.200 338.980,223.200 339.200 C 223.200 339.429,222.000 339.600,220.400 339.600 C 218.800 339.600,217.600 339.771,217.600 340.000 C 217.600 340.247,215.533 340.400,212.200 340.400 C 208.867 340.400,206.800 340.553,206.800 340.800 C 206.800 341.020,206.620 341.200,206.400 341.200 C 206.139 341.200,206.000 334.267,206.000 321.200 L 206.000 301.200 209.576 301.200 C 211.543 301.200,213.264 301.020,213.400 300.800 C 213.536 300.580,214.717 300.400,216.024 300.400 C 217.341 300.400,218.400 300.222,218.400 300.000 C 218.400 299.780,219.199 299.600,220.176 299.600 C 221.153 299.600,222.064 299.420,222.200 299.200 C 222.336 298.980,223.067 298.800,223.824 298.800 C 224.581 298.800,225.200 298.620,225.200 298.400 C 225.200 298.180,225.819 298.000,226.576 298.000 C 227.333 298.000,228.064 297.820,228.200 297.600 C 228.336 297.380,228.977 297.200,229.624 297.200 C 230.271 297.200,230.800 297.020,230.800 296.800 C 230.800 296.580,231.340 296.400,232.000 296.400 C 232.660 296.400,233.200 296.220,233.200 296.000 C 233.200 295.780,233.650 295.600,234.200 295.600 C 234.750 295.600,235.200 295.420,235.200 295.200 C 235.200 294.980,235.650 294.800,236.200 294.800 C 236.750 294.800,237.200 294.620,237.200 294.400 C 237.200 294.180,237.650 294.000,238.200 294.000 C 238.750 294.000,239.200 293.820,239.200 293.600 C 239.200 293.380,239.560 293.200,240.000 293.200 C 240.440 293.200,240.800 293.020,240.800 292.800 C 240.800 292.580,241.160 292.400,241.600 292.400 C 242.040 292.400,242.400 292.220,242.400 292.000 C 242.400 291.780,242.671 291.600,243.002 291.600 C 243.527 291.600,244.478 291.175,248.697 289.051 C 249.190 288.803,249.595 288.465,249.597 288.300 C 249.599 288.135,249.878 288.000,250.217 288.000 C 250.556 288.000,251.220 287.640,251.692 287.200 C 252.164 286.760,252.787 286.400,253.075 286.400 C 253.364 286.400,253.600 286.220,253.600 286.000 C 253.600 285.780,253.825 285.597,254.100 285.593 C 254.610 285.585,256.603 284.116,258.294 282.500 C 258.812 282.005,259.407 281.600,259.616 281.600 C 259.825 281.600,260.915 280.700,262.039 279.600 C 263.162 278.500,264.249 277.600,264.454 277.600 C 264.659 277.600,265.432 277.015,266.171 276.300 C 271.754 270.900,273.315 269.273,274.289 267.837 C 274.899 266.937,275.894 265.723,276.500 265.140 C 277.105 264.556,277.600 263.863,277.600 263.600 C 277.600 263.337,278.140 262.617,278.800 262.000 C 279.460 261.383,280.000 260.631,280.000 260.328 C 280.000 260.025,280.360 259.517,280.800 259.200 C 281.240 258.883,281.600 258.476,281.600 258.295 C 281.600 258.114,281.960 257.580,282.400 257.108 C 282.840 256.636,283.200 256.013,283.200 255.725 C 283.200 255.436,283.380 255.200,283.600 255.200 C 283.820 255.200,284.000 254.964,284.000 254.675 C 284.000 254.387,284.360 253.764,284.800 253.292 C 285.240 252.820,285.600 252.156,285.600 251.817 C 285.600 251.478,285.780 251.200,286.000 251.200 C 286.220 251.200,286.400 250.840,286.400 250.400 C 286.400 249.960,286.580 249.600,286.800 249.600 C 287.020 249.600,287.200 249.240,287.200 248.800 C 287.200 248.360,287.380 248.000,287.600 248.000 C 287.820 248.000,288.000 247.640,288.000 247.200 C 288.000 246.760,288.180 246.400,288.400 246.400 C 288.620 246.400,288.800 246.040,288.800 245.600 C 288.800 245.160,288.980 244.800,289.200 244.800 C 289.420 244.800,289.600 244.564,289.600 244.275 C 289.600 243.986,289.975 242.974,290.433 242.026 C 290.891 241.077,291.365 239.694,291.485 238.951 C 291.606 238.208,291.861 237.600,292.052 237.600 C 292.244 237.600,292.400 237.161,292.400 236.624 C 292.400 236.087,292.580 235.536,292.800 235.400 C 293.020 235.264,293.200 234.724,293.200 234.200 C 293.200 233.676,293.380 233.136,293.600 233.000 C 293.820 232.864,294.000 232.133,294.000 231.376 C 294.000 230.619,294.180 230.000,294.400 230.000 C 294.620 230.000,294.800 229.280,294.800 228.400 C 294.800 227.520,294.980 226.800,295.200 226.800 C 295.420 226.800,295.600 226.080,295.600 225.200 C 295.600 224.320,295.780 223.600,296.000 223.600 C 296.220 223.600,296.400 222.610,296.400 221.400 C 296.400 220.190,296.580 219.200,296.800 219.200 C 297.033 219.200,297.200 217.867,297.200 216.000 C 297.200 214.133,297.367 212.800,297.600 212.800 C 297.820 212.800,298.000 212.080,298.000 211.200 L 298.000 209.600 318.800 209.600 L 339.600 209.600 339.600 213.200 C 339.600 215.333,339.437 216.800,339.200 216.800 C 338.967 216.800,338.800 218.133,338.800 220.000 C 338.800 221.867,338.633 223.200,338.400 223.200 C 338.180 223.200,338.000 224.179,338.000 225.376 C 338.000 226.573,337.820 227.664,337.600 227.800 C 337.380 227.936,337.200 228.847,337.200 229.824 C 337.200 230.801,337.020 231.600,336.800 231.600 C 336.580 231.600,336.400 232.399,336.400 233.376 C 336.400 234.353,336.220 235.264,336.000 235.400 C 335.780 235.536,335.600 236.256,335.600 237.000 C 335.600 237.744,335.420 238.464,335.200 238.600 C 334.980 238.736,334.800 239.377,334.800 240.024 C 334.800 240.671,334.620 241.200,334.400 241.200 C 334.180 241.200,334.000 241.729,334.000 242.376 C 334.000 243.023,333.820 243.664,333.600 243.800 C 333.380 243.936,333.200 244.577,333.200 245.224 C 333.200 245.871,333.020 246.400,332.800 246.400 C 332.580 246.400,332.400 246.940,332.400 247.600 C 332.400 248.260,332.220 248.800,332.000 248.800 C 331.767 248.800,331.600 250.133,331.600 252.000 C 331.600 253.867,331.767 255.200,332.000 255.200 C 332.220 255.200,332.400 255.393,332.400 255.629 C 332.400 256.807,335.356 258.400,337.542 258.400 C 340.334 258.400,343.200 256.232,343.200 254.120 C 343.200 253.834,343.380 253.600,343.600 253.600 C 343.820 253.600,344.000 253.060,344.000 252.400 C 344.000 251.740,344.180 251.200,344.400 251.200 C 344.620 251.200,344.800 250.660,344.800 250.000 C 344.800 249.340,344.980 248.800,345.200 248.800 C 345.420 248.800,345.600 248.271,345.600 247.624 C 345.600 246.977,345.780 246.336,346.000 246.200 C 346.220 246.064,346.400 245.333,346.400 244.576 C 346.400 243.819,346.580 243.200,346.800 243.200 C 347.020 243.200,347.200 242.581,347.200 241.824 C 347.200 241.067,347.380 240.336,347.600 240.200 C 347.820 240.064,348.000 239.333,348.000 238.576 C 348.000 237.819,348.180 237.200,348.400 237.200 C 348.620 237.200,348.800 236.300,348.800 235.200 C 348.800 234.100,348.980 233.200,349.200 233.200 C 349.420 233.200,349.600 232.300,349.600 231.200 C 349.600 230.100,349.780 229.200,350.000 229.200 C 350.225 229.200,350.400 228.075,350.400 226.624 C 350.400 225.207,350.580 223.936,350.800 223.800 C 351.020 223.664,351.200 222.134,351.200 220.400 C 351.200 218.666,351.380 217.136,351.600 217.000 C 351.820 216.864,352.000 215.143,352.000 213.176 L 352.000 209.600 369.200 209.600 C 380.400 209.600,386.400 209.460,386.400 209.200 C 386.400 208.980,386.748 208.800,387.173 208.800 C 388.059 208.800,389.198 207.277,389.940 205.100 C 390.808 202.556,388.651 198.000,386.580 198.000 C 386.041 198.000,385.600 197.820,385.600 197.600 C 385.600 197.340,379.733 197.200,368.800 197.200 L 352.000 197.200 352.000 194.224 C 352.000 192.587,351.820 191.136,351.600 191.000 C 351.380 190.864,351.200 189.154,351.200 187.200 C 351.200 185.246,351.020 183.536,350.800 183.400 C 350.580 183.264,350.400 182.083,350.400 180.776 C 350.400 179.459,350.222 178.400,350.000 178.400 C 349.780 178.400,349.600 177.410,349.600 176.200 C 349.600 174.990,349.420 174.000,349.200 174.000 C 348.980 174.000,348.800 173.201,348.800 172.224 C 348.800 171.247,348.620 170.336,348.400 170.200 C 348.180 170.064,348.000 169.243,348.000 168.376 C 348.000 167.509,347.820 166.800,347.600 166.800 C 347.380 166.800,347.200 166.181,347.200 165.424 C 347.200 164.667,347.020 163.936,346.800 163.800 C 346.580 163.664,346.400 163.023,346.400 162.376 C 346.400 161.729,346.220 161.200,346.000 161.200 C 345.780 161.200,345.600 160.570,345.600 159.800 C 345.600 159.030,345.420 158.400,345.200 158.400 C 344.980 158.400,344.800 158.038,344.800 157.595 C 344.800 157.152,344.620 156.432,344.400 155.995 C 344.180 155.558,343.820 154.842,343.600 154.405 C 343.380 153.968,343.200 153.248,343.200 152.805 C 343.200 152.362,343.020 152.000,342.800 152.000 C 342.580 152.000,342.400 151.460,342.400 150.800 C 342.400 150.140,342.240 149.600,342.045 149.600 C 341.849 149.600,341.567 148.947,341.417 148.150 C 341.172 146.844,339.400 142.481,338.394 140.705 C 338.177 140.323,338.000 139.738,338.000 139.405 C 338.000 139.072,337.820 138.800,337.600 138.800 C 337.380 138.800,337.200 138.440,337.200 138.000 C 337.200 137.560,337.020 137.200,336.800 137.200 C 336.580 137.200,336.400 136.840,336.400 136.400 C 336.400 135.960,336.220 135.600,336.000 135.600 C 335.780 135.600,335.600 135.240,335.600 134.800 C 335.600 134.360,335.420 134.000,335.200 134.000 C 334.980 134.000,334.800 133.640,334.800 133.200 C 334.800 132.760,334.620 132.400,334.400 132.400 C 334.180 132.400,334.000 132.164,334.000 131.875 C 334.000 131.587,333.640 130.964,333.200 130.492 C 332.760 130.020,332.400 129.356,332.400 129.017 C 332.400 128.678,332.264 128.400,332.098 128.400 C 331.931 128.400,331.571 127.894,331.297 127.275 C 331.024 126.656,330.440 125.764,330.000 125.292 C 329.560 124.820,329.200 124.196,329.200 123.905 C 329.200 123.614,328.840 123.117,328.400 122.800 C 327.960 122.483,327.600 121.943,327.600 121.600 C 327.600 121.257,327.240 120.717,326.800 120.400 C 326.360 120.083,326.000 119.503,326.000 119.112 C 326.000 118.720,325.865 118.396,325.700 118.392 C 325.535 118.388,324.868 117.488,324.217 116.392 C 323.567 115.296,322.904 114.400,322.744 114.400 C 322.585 114.400,322.351 114.077,322.226 113.683 C 322.101 113.288,321.369 112.298,320.599 111.482 C 319.830 110.666,319.200 109.897,319.200 109.773 C 319.200 109.649,318.300 108.671,317.200 107.600 C 316.100 106.529,315.200 105.465,315.200 105.236 C 315.200 104.640,301.834 91.200,301.241 91.200 C 300.970 91.200,299.871 90.300,298.800 89.200 C 297.729 88.100,296.646 87.200,296.395 87.200 C 296.143 87.200,295.246 86.480,294.400 85.600 C 293.554 84.720,292.677 84.000,292.450 84.000 C 292.222 84.000,291.612 83.595,291.094 83.100 C 289.656 81.726,287.438 80.015,287.083 80.007 C 286.909 80.003,286.380 79.640,285.908 79.200 C 285.436 78.760,284.813 78.400,284.525 78.400 C 284.236 78.400,284.000 78.258,284.000 78.084 C 284.000 77.910,283.013 77.267,281.807 76.657 C 280.601 76.046,279.510 75.378,279.383 75.173 C 279.257 74.968,278.803 74.800,278.376 74.800 C 277.949 74.800,277.600 74.620,277.600 74.400 C 277.600 74.180,277.322 74.000,276.983 74.000 C 276.644 74.000,275.980 73.640,275.508 73.200 C 275.036 72.760,274.413 72.400,274.125 72.400 C 273.836 72.400,273.600 72.254,273.600 72.075 C 273.600 71.896,272.970 71.502,272.200 71.200 C 271.430 70.898,270.800 70.504,270.800 70.325 C 270.800 70.146,270.440 70.000,270.000 70.000 C 269.560 70.000,269.200 69.820,269.200 69.600 C 269.200 69.380,268.840 69.200,268.400 69.200 C 267.960 69.200,267.600 69.020,267.600 68.800 C 267.600 68.580,267.251 68.400,266.824 68.400 C 266.397 68.400,265.936 68.220,265.800 68.000 C 265.664 67.780,265.113 67.600,264.576 67.600 C 264.039 67.600,263.600 67.420,263.600 67.200 C 263.600 66.980,263.240 66.800,262.800 66.800 C 262.360 66.800,262.000 66.620,262.000 66.400 C 262.000 66.180,261.640 66.000,261.200 66.000 C 260.760 66.000,260.400 65.820,260.400 65.600 C 260.400 65.380,259.961 65.200,259.424 65.200 C 258.887 65.200,258.336 65.020,258.200 64.800 C 258.064 64.580,257.603 64.400,257.176 64.400 C 256.749 64.400,256.400 64.220,256.400 64.000 C 256.400 63.780,255.950 63.600,255.400 63.600 C 254.850 63.600,254.400 63.420,254.400 63.200 C 254.400 62.980,253.860 62.800,253.200 62.800 C 252.540 62.800,252.000 62.620,252.000 62.400 C 252.000 62.180,251.460 62.000,250.800 62.000 C 250.140 62.000,249.600 61.820,249.600 61.600 C 249.600 61.380,249.060 61.200,248.400 61.200 C 247.740 61.200,247.200 61.020,247.200 60.800 C 247.200 60.580,246.671 60.400,246.024 60.400 C 245.377 60.400,244.736 60.220,244.600 60.000 C 244.464 59.780,243.769 59.600,243.056 59.600 C 242.343 59.600,241.576 59.416,241.352 59.192 C 241.127 58.967,239.741 58.671,238.272 58.534 C 236.802 58.397,235.600 58.130,235.600 57.942 C 235.600 57.754,234.891 57.600,234.024 57.600 C 233.157 57.600,232.336 57.420,232.200 57.200 C 232.064 56.980,230.973 56.800,229.776 56.800 C 228.579 56.800,227.600 56.620,227.600 56.400 C 227.600 56.175,226.475 56.000,225.024 56.000 C 223.607 56.000,222.336 55.820,222.200 55.600 C 222.063 55.379,220.263 55.200,218.176 55.200 C 215.925 55.200,214.400 55.038,214.400 54.800 C 214.400 54.559,212.733 54.400,210.200 54.400 L 206.000 54.400 206.000 35.600 C 206.000 25.260,205.863 16.800,205.695 16.800 C 205.527 16.800,205.212 16.395,204.995 15.900 C 204.778 15.405,204.195 14.822,203.700 14.605 C 203.205 14.388,202.800 14.073,202.800 13.905 C 202.800 13.737,201.540 13.600,200.000 13.600 C 198.460 13.600,197.200 13.737,197.200 13.905 M194.000 86.400 L 194.000 106.000 191.000 106.000 C 189.267 106.000,188.000 106.169,188.000 106.400 C 188.000 106.629,186.800 106.800,185.200 106.800 C 183.600 106.800,182.400 106.971,182.400 107.200 C 182.400 107.420,181.500 107.600,180.400 107.600 C 179.300 107.600,178.400 107.747,178.400 107.926 C 178.400 108.106,177.095 108.470,175.500 108.736 C 170.395 109.587,170.000 109.681,170.000 110.044 C 170.000 110.240,169.460 110.400,168.800 110.400 C 168.140 110.400,167.600 110.580,167.600 110.800 C 167.600 111.020,167.161 111.200,166.624 111.200 C 166.087 111.200,165.536 111.380,165.400 111.600 C 165.264 111.820,164.890 112.000,164.568 112.000 C 163.991 112.000,158.503 114.439,155.400 116.076 C 154.520 116.540,153.396 117.117,152.903 117.360 C 152.410 117.602,152.005 117.935,152.003 118.100 C 152.001 118.265,151.640 118.400,151.200 118.400 C 150.760 118.400,150.400 118.580,150.400 118.800 C 150.400 119.020,150.080 119.200,149.688 119.200 C 149.297 119.200,148.717 119.560,148.400 120.000 C 148.083 120.440,147.503 120.800,147.112 120.800 C 146.720 120.800,146.400 120.950,146.400 121.132 C 146.400 121.315,145.905 121.719,145.300 122.030 C 144.695 122.340,143.909 122.911,143.553 123.297 C 143.197 123.684,142.785 124.000,142.636 124.000 C 142.488 124.000,142.149 124.183,141.883 124.407 C 140.048 125.955,139.438 126.400,139.152 126.400 C 138.973 126.400,138.236 126.988,137.513 127.707 C 136.791 128.425,135.570 129.457,134.800 129.999 C 133.062 131.222,127.430 136.869,126.497 138.324 C 125.554 139.794,125.204 140.229,123.700 141.808 C 122.985 142.559,122.400 143.271,122.400 143.390 C 122.400 143.510,121.860 144.172,121.200 144.863 C 120.540 145.554,120.000 146.322,120.000 146.571 C 120.000 146.820,119.640 147.283,119.200 147.600 C 118.760 147.917,118.400 148.457,118.400 148.800 C 118.400 149.143,118.040 149.683,117.600 150.000 C 117.160 150.317,116.800 150.897,116.800 151.288 C 116.800 151.680,116.620 152.000,116.400 152.000 C 116.180 152.000,116.000 152.236,116.000 152.525 C 116.000 152.813,115.640 153.436,115.200 153.908 C 114.760 154.380,114.400 155.044,114.400 155.383 C 114.400 155.722,114.220 156.000,114.000 156.000 C 113.780 156.000,113.600 156.345,113.600 156.767 C 113.600 157.188,113.459 157.593,113.286 157.667 C 112.446 158.024,108.400 167.420,108.400 169.015 C 108.400 169.557,108.220 170.000,108.000 170.000 C 107.780 170.000,107.600 170.439,107.600 170.976 C 107.600 171.513,107.420 172.064,107.200 172.200 C 106.980 172.336,106.800 172.876,106.800 173.400 C 106.800 173.924,106.620 174.464,106.400 174.600 C 106.180 174.736,106.000 175.276,106.000 175.800 C 106.000 176.324,105.820 176.864,105.600 177.000 C 105.380 177.136,105.200 177.867,105.200 178.624 C 105.200 179.381,105.020 180.000,104.800 180.000 C 104.580 180.000,104.400 180.709,104.400 181.576 C 104.400 182.443,104.220 183.264,104.000 183.400 C 103.780 183.536,103.600 184.627,103.600 185.824 C 103.600 187.021,103.420 188.000,103.200 188.000 C 102.969 188.000,102.800 189.259,102.800 190.976 C 102.800 192.613,102.620 194.064,102.400 194.200 C 102.180 194.336,102.000 195.067,102.000 195.824 L 102.000 197.200 84.400 197.200 L 66.800 197.200 66.800 195.824 C 66.800 195.067,66.980 194.336,67.200 194.200 C 67.421 194.063,67.600 192.263,67.600 190.176 C 67.600 187.925,67.762 186.400,68.000 186.400 C 68.225 186.400,68.400 185.275,68.400 183.824 C 68.400 182.407,68.580 181.136,68.800 181.000 C 69.020 180.864,69.200 179.863,69.200 178.776 C 69.200 177.689,69.380 176.800,69.600 176.800 C 69.820 176.800,70.000 176.001,70.000 175.024 C 70.000 174.047,70.180 173.136,70.400 173.000 C 70.620 172.864,70.800 172.144,70.800 171.400 C 70.800 170.656,70.980 169.936,71.200 169.800 C 71.420 169.664,71.600 169.034,71.600 168.400 C 71.600 167.766,71.780 167.136,72.000 167.000 C 72.220 166.864,72.400 166.311,72.400 165.771 C 72.400 165.231,72.563 164.477,72.761 164.095 C 73.354 162.956,75.200 156.807,75.200 155.972 C 75.200 155.548,75.380 155.200,75.600 155.200 C 75.820 155.200,76.000 154.840,76.000 154.400 C 76.000 153.960,76.180 153.600,76.400 153.600 C 76.620 153.600,76.800 153.060,76.800 152.400 C 76.800 151.740,76.980 151.200,77.200 151.200 C 77.420 151.200,77.600 150.840,77.600 150.400 C 77.600 149.960,77.780 149.600,78.000 149.600 C 78.220 149.600,78.400 149.240,78.400 148.800 C 78.400 148.360,78.580 148.000,78.800 148.000 C 79.020 148.000,79.200 147.561,79.200 147.024 C 79.200 146.487,79.380 145.936,79.600 145.800 C 79.820 145.664,80.000 145.203,80.000 144.776 C 80.000 144.349,80.180 144.000,80.400 144.000 C 80.620 144.000,80.800 143.640,80.800 143.200 C 80.800 142.760,80.980 142.400,81.200 142.400 C 81.420 142.400,81.600 142.130,81.600 141.800 C 81.600 141.470,81.780 141.200,82.000 141.200 C 82.220 141.200,82.400 140.840,82.400 140.400 C 82.400 139.960,82.580 139.600,82.800 139.600 C 83.020 139.600,83.200 139.330,83.200 139.000 C 83.200 138.670,83.380 138.400,83.600 138.400 C 83.820 138.400,84.000 138.130,84.000 137.800 C 84.000 137.470,84.180 137.200,84.400 137.200 C 84.620 137.200,84.800 136.840,84.800 136.400 C 84.800 135.960,84.980 135.600,85.200 135.600 C 85.420 135.600,85.600 135.322,85.600 134.983 C 85.600 134.644,85.960 133.980,86.400 133.508 C 86.840 133.036,87.200 132.413,87.200 132.125 C 87.200 131.836,87.380 131.600,87.600 131.600 C 87.820 131.600,88.000 131.364,88.000 131.075 C 88.000 130.787,88.360 130.164,88.800 129.692 C 89.240 129.220,89.600 128.556,89.600 128.217 C 89.600 127.878,89.752 127.600,89.937 127.600 C 90.122 127.600,90.613 126.970,91.028 126.200 C 91.443 125.430,91.921 124.800,92.091 124.800 C 92.261 124.800,92.400 124.530,92.400 124.200 C 92.400 123.870,92.580 123.600,92.800 123.600 C 93.020 123.600,93.200 123.418,93.200 123.196 C 93.200 122.974,93.740 122.228,94.400 121.537 C 95.060 120.846,95.600 120.114,95.600 119.909 C 95.600 119.705,96.320 118.846,97.200 118.000 C 98.080 117.154,98.800 116.277,98.800 116.049 C 98.800 115.624,103.975 110.099,108.149 106.068 C 109.440 104.821,111.642 102.675,113.041 101.300 C 114.440 99.925,115.737 98.800,115.922 98.800 C 116.107 98.800,117.222 97.900,118.400 96.800 C 119.578 95.700,120.740 94.800,120.982 94.800 C 121.225 94.800,121.683 94.440,122.000 94.000 C 122.317 93.560,122.725 93.200,122.906 93.200 C 123.087 93.200,123.713 92.757,124.296 92.216 C 124.880 91.675,125.862 91.023,126.479 90.767 C 127.095 90.512,127.600 90.145,127.600 89.951 C 127.600 89.758,127.836 89.600,128.125 89.600 C 128.413 89.600,129.036 89.240,129.508 88.800 C 129.980 88.360,130.562 88.000,130.800 88.000 C 131.038 88.000,131.620 87.640,132.092 87.200 C 132.564 86.760,133.187 86.400,133.475 86.400 C 133.764 86.400,134.000 86.220,134.000 86.000 C 134.000 85.780,134.278 85.600,134.617 85.600 C 134.956 85.600,135.620 85.240,136.092 84.800 C 136.564 84.360,137.187 84.000,137.475 84.000 C 137.764 84.000,138.000 83.820,138.000 83.600 C 138.000 83.380,138.360 83.200,138.800 83.200 C 139.240 83.200,139.600 83.054,139.600 82.875 C 139.600 82.696,140.230 82.302,141.000 82.000 C 141.770 81.698,142.400 81.304,142.400 81.125 C 142.400 80.946,142.760 80.800,143.200 80.800 C 143.640 80.800,144.000 80.620,144.000 80.400 C 144.000 80.180,144.360 80.000,144.800 80.000 C 145.240 80.000,145.600 79.820,145.600 79.600 C 145.600 79.380,145.960 79.200,146.400 79.200 C 146.840 79.200,147.200 79.020,147.200 78.800 C 147.200 78.580,147.549 78.400,147.976 78.400 C 148.403 78.400,148.864 78.220,149.000 78.000 C 149.136 77.780,149.687 77.600,150.224 77.600 C 150.761 77.600,151.200 77.420,151.200 77.200 C 151.200 76.980,151.560 76.800,152.000 76.800 C 152.440 76.800,152.800 76.620,152.800 76.400 C 152.800 76.180,153.239 76.000,153.776 76.000 C 154.313 76.000,154.858 75.830,154.986 75.623 C 155.114 75.416,156.024 75.125,157.009 74.978 C 157.994 74.830,158.800 74.550,158.800 74.355 C 158.800 74.160,159.239 74.000,159.776 74.000 C 160.313 74.000,160.864 73.820,161.000 73.600 C 161.136 73.380,161.777 73.200,162.424 73.200 C 163.071 73.200,163.600 73.040,163.600 72.844 C 163.600 72.507,164.049 72.390,167.700 71.768 C 168.525 71.627,169.200 71.352,169.200 71.156 C 169.200 70.960,169.819 70.800,170.576 70.800 C 171.333 70.800,172.064 70.620,172.200 70.400 C 172.336 70.180,173.247 70.000,174.224 70.000 C 175.201 70.000,176.000 69.820,176.000 69.600 C 176.000 69.380,176.799 69.200,177.776 69.200 C 178.753 69.200,179.664 69.020,179.800 68.800 C 179.936 68.580,181.117 68.400,182.424 68.400 C 183.741 68.400,184.800 68.222,184.800 68.000 C 184.800 67.767,186.125 67.600,187.976 67.600 C 189.723 67.600,191.264 67.420,191.400 67.200 C 191.536 66.980,192.177 66.800,192.824 66.800 L 194.000 66.800 194.000 86.400 M215.400 67.200 C 215.536 67.420,216.976 67.600,218.600 67.600 C 220.224 67.600,221.664 67.780,221.800 68.000 C 221.936 68.220,223.016 68.400,224.200 68.400 C 225.384 68.400,226.464 68.580,226.600 68.800 C 226.736 69.020,227.737 69.200,228.824 69.200 C 229.911 69.200,230.800 69.380,230.800 69.600 C 230.800 69.820,231.520 70.000,232.400 70.000 C 233.280 70.000,234.000 70.180,234.000 70.400 C 234.000 70.620,234.720 70.800,235.600 70.800 C 236.480 70.800,237.200 70.980,237.200 71.200 C 237.200 71.420,237.920 71.600,238.800 71.600 C 239.680 71.600,240.400 71.780,240.400 72.000 C 240.400 72.220,240.940 72.400,241.600 72.400 C 242.260 72.400,242.800 72.580,242.800 72.800 C 242.800 73.020,243.076 73.200,243.414 73.200 C 244.134 73.200,250.283 75.098,251.295 75.633 C 251.677 75.835,252.352 76.000,252.795 76.000 C 253.238 76.000,253.600 76.180,253.600 76.400 C 253.600 76.620,253.949 76.800,254.376 76.800 C 254.803 76.800,255.264 76.980,255.400 77.200 C 255.536 77.420,256.087 77.600,256.624 77.600 C 257.161 77.600,257.600 77.780,257.600 78.000 C 257.600 78.220,257.945 78.400,258.367 78.400 C 258.788 78.400,259.193 78.536,259.267 78.702 C 259.340 78.868,260.660 79.632,262.200 80.400 C 263.740 81.168,265.060 81.932,265.133 82.098 C 265.207 82.264,265.612 82.400,266.033 82.400 C 266.455 82.400,266.800 82.580,266.800 82.800 C 266.800 83.020,267.160 83.200,267.600 83.200 C 268.040 83.200,268.400 83.380,268.400 83.600 C 268.400 83.820,268.760 84.000,269.200 84.000 C 269.640 84.000,270.000 84.180,270.000 84.400 C 270.000 84.620,270.236 84.800,270.525 84.800 C 270.813 84.800,271.436 85.160,271.908 85.600 C 272.380 86.040,273.044 86.400,273.383 86.400 C 273.722 86.400,274.000 86.580,274.000 86.800 C 274.000 87.020,274.236 87.200,274.525 87.200 C 274.813 87.200,275.436 87.560,275.908 88.000 C 276.380 88.440,276.895 88.800,277.052 88.800 C 277.209 88.800,277.667 89.099,278.071 89.464 C 278.925 90.237,280.301 91.079,281.300 91.440 C 281.685 91.579,282.000 91.852,282.000 92.047 C 282.000 92.241,282.230 92.400,282.512 92.400 C 282.793 92.400,283.283 92.760,283.600 93.200 C 283.917 93.640,284.421 94.000,284.720 94.000 C 285.018 94.000,285.954 94.720,286.800 95.600 C 287.646 96.480,288.543 97.200,288.795 97.200 C 289.046 97.200,290.129 98.100,291.200 99.200 C 292.271 100.300,293.248 101.200,293.371 101.200 C 293.566 101.200,296.731 104.204,303.300 110.625 C 304.345 111.646,305.200 112.657,305.200 112.872 C 305.200 113.087,305.882 113.924,306.715 114.731 C 307.548 115.539,308.653 116.892,309.171 117.738 C 309.688 118.584,310.537 119.700,311.056 120.220 C 311.575 120.739,312.001 121.307,312.002 121.482 C 312.003 121.657,312.543 122.375,313.202 123.078 C 313.861 123.781,314.400 124.507,314.400 124.690 C 314.400 124.873,314.760 125.283,315.200 125.600 C 315.640 125.917,316.000 126.457,316.000 126.800 C 316.000 127.143,316.360 127.683,316.800 128.000 C 317.240 128.317,317.600 128.857,317.600 129.200 C 317.600 129.543,317.960 130.083,318.400 130.400 C 318.840 130.717,319.200 131.297,319.200 131.688 C 319.200 132.080,319.380 132.400,319.600 132.400 C 319.820 132.400,320.000 132.720,320.000 133.112 C 320.000 133.503,320.360 134.083,320.800 134.400 C 321.240 134.717,321.600 135.297,321.600 135.688 C 321.600 136.080,321.780 136.400,322.000 136.400 C 322.220 136.400,322.400 136.760,322.400 137.200 C 322.400 137.640,322.546 138.000,322.725 138.000 C 322.904 138.000,323.298 138.630,323.600 139.400 C 323.902 140.170,324.296 140.800,324.475 140.800 C 324.654 140.800,324.800 141.065,324.800 141.389 C 324.800 141.714,325.430 143.273,326.200 144.856 C 326.970 146.438,327.600 147.972,327.600 148.266 C 327.600 148.560,327.780 148.800,328.000 148.800 C 328.220 148.800,328.400 149.160,328.400 149.600 C 328.400 150.040,328.580 150.400,328.800 150.400 C 329.020 150.400,329.200 150.839,329.200 151.376 C 329.200 151.913,329.380 152.464,329.600 152.600 C 329.820 152.736,330.000 153.197,330.000 153.624 C 330.000 154.051,330.180 154.400,330.400 154.400 C 330.620 154.400,330.800 154.839,330.800 155.376 C 330.800 155.913,330.980 156.464,331.200 156.600 C 331.420 156.736,331.600 157.287,331.600 157.824 C 331.600 158.361,331.780 158.800,332.000 158.800 C 332.220 158.800,332.400 159.340,332.400 160.000 C 332.400 160.660,332.580 161.200,332.800 161.200 C 333.020 161.200,333.200 161.740,333.200 162.400 C 333.200 163.060,333.380 163.600,333.600 163.600 C 333.820 163.600,334.000 164.140,334.000 164.800 C 334.000 165.460,334.180 166.000,334.400 166.000 C 334.620 166.000,334.800 166.720,334.800 167.600 C 334.800 168.480,334.980 169.200,335.200 169.200 C 335.420 169.200,335.600 169.819,335.600 170.576 C 335.600 171.333,335.780 172.064,336.000 172.200 C 336.220 172.336,336.400 173.067,336.400 173.824 C 336.400 174.581,336.580 175.200,336.800 175.200 C 337.020 175.200,337.200 176.100,337.200 177.200 C 337.200 178.300,337.380 179.200,337.600 179.200 C 337.822 179.200,338.000 180.267,338.000 181.600 C 338.000 182.933,338.178 184.000,338.400 184.000 C 338.631 184.000,338.800 185.259,338.800 186.976 C 338.800 188.613,338.980 190.064,339.200 190.200 C 339.420 190.336,339.600 191.967,339.600 193.824 L 339.600 197.200 318.800 197.200 L 298.000 197.200 298.000 195.800 C 298.000 195.030,297.820 194.400,297.600 194.400 C 297.367 194.400,297.200 193.067,297.200 191.200 C 297.200 189.333,297.033 188.000,296.800 188.000 C 296.580 188.000,296.400 187.021,296.400 185.824 C 296.400 184.627,296.220 183.536,296.000 183.400 C 295.780 183.264,295.600 182.443,295.600 181.576 C 295.600 180.709,295.420 180.000,295.200 180.000 C 294.980 180.000,294.800 179.381,294.800 178.624 C 294.800 177.867,294.620 177.136,294.400 177.000 C 294.180 176.864,294.000 176.324,294.000 175.800 C 294.000 175.276,293.820 174.736,293.600 174.600 C 293.380 174.464,293.200 173.924,293.200 173.400 C 293.200 172.876,293.020 172.336,292.800 172.200 C 292.580 172.064,292.400 171.513,292.400 170.976 C 292.400 170.439,292.220 170.000,292.000 170.000 C 291.780 170.000,291.599 169.505,291.598 168.900 C 291.596 168.295,291.326 167.284,290.998 166.654 C 290.669 166.024,290.400 165.332,290.400 165.115 C 290.400 164.524,287.087 157.820,286.719 157.667 C 286.544 157.593,286.400 157.188,286.400 156.767 C 286.400 156.345,286.220 156.000,286.000 156.000 C 285.780 156.000,285.600 155.680,285.600 155.288 C 285.600 154.897,285.240 154.317,284.800 154.000 C 284.360 153.683,284.000 153.103,284.000 152.712 C 284.000 152.320,283.820 152.000,283.600 152.000 C 283.380 152.000,283.200 151.680,283.200 151.288 C 283.200 150.897,282.840 150.317,282.400 150.000 C 281.960 149.683,281.600 149.143,281.600 148.800 C 281.600 148.457,281.240 147.917,280.800 147.600 C 280.360 147.283,280.000 146.820,280.000 146.571 C 280.000 146.322,279.460 145.554,278.800 144.863 C 278.140 144.172,277.600 143.510,277.600 143.390 C 277.600 143.271,277.015 142.559,276.300 141.808 C 274.796 140.229,274.446 139.794,273.503 138.324 C 272.570 136.869,266.938 131.222,265.200 129.999 C 264.430 129.457,263.209 128.425,262.487 127.707 C 261.764 126.988,261.027 126.400,260.848 126.400 C 260.562 126.400,259.952 125.955,258.117 124.407 C 257.851 124.183,257.512 124.000,257.364 124.000 C 257.215 124.000,256.803 123.684,256.447 123.297 C 256.091 122.911,255.305 122.340,254.700 122.030 C 254.095 121.719,253.600 121.315,253.600 121.132 C 253.600 120.950,253.280 120.800,252.888 120.800 C 252.497 120.800,251.917 120.440,251.600 120.000 C 251.283 119.560,250.703 119.200,250.312 119.200 C 249.920 119.200,249.600 119.020,249.600 118.800 C 249.600 118.580,249.240 118.400,248.800 118.400 C 248.360 118.400,247.999 118.265,247.997 118.100 C 247.995 117.935,247.590 117.602,247.097 117.360 C 246.604 117.117,245.480 116.553,244.600 116.105 C 242.631 115.103,237.754 112.843,236.400 112.304 C 235.850 112.086,235.087 111.748,234.705 111.553 C 234.323 111.359,233.648 111.200,233.205 111.200 C 232.762 111.200,232.400 111.020,232.400 110.800 C 232.400 110.580,231.860 110.400,231.200 110.400 C 230.540 110.400,230.000 110.220,230.000 110.000 C 230.000 109.780,229.538 109.600,228.974 109.600 C 228.409 109.600,227.608 109.418,227.192 109.196 C 226.777 108.973,225.349 108.678,224.018 108.539 C 222.688 108.400,221.600 108.132,221.600 107.943 C 221.600 107.754,220.700 107.600,219.600 107.600 C 218.500 107.600,217.600 107.420,217.600 107.200 C 217.600 106.971,216.400 106.800,214.800 106.800 C 213.200 106.800,212.000 106.629,212.000 106.400 C 212.000 106.169,210.733 106.000,209.000 106.000 L 206.000 106.000 206.000 86.400 L 206.000 66.800 210.576 66.800 C 213.196 66.800,215.258 66.971,215.400 67.200 M194.000 157.800 L 194.000 197.200 154.200 197.200 L 114.400 197.200 114.400 195.600 C 114.400 194.720,114.580 194.000,114.800 194.000 C 115.026 194.000,115.200 192.867,115.200 191.400 C 115.200 189.933,115.374 188.800,115.600 188.800 C 115.820 188.800,116.000 187.990,116.000 187.000 C 116.000 186.010,116.180 185.200,116.400 185.200 C 116.620 185.200,116.800 184.491,116.800 183.624 C 116.800 182.757,116.980 181.936,117.200 181.800 C 117.420 181.664,117.600 181.023,117.600 180.376 C 117.600 179.729,117.780 179.200,118.000 179.200 C 118.220 179.200,118.400 178.660,118.400 178.000 C 118.400 177.340,118.580 176.800,118.800 176.800 C 119.020 176.800,119.200 176.260,119.200 175.600 C 119.200 174.940,119.380 174.400,119.600 174.400 C 119.820 174.400,120.000 173.950,120.000 173.400 C 120.000 172.850,120.180 172.400,120.400 172.400 C 120.620 172.400,120.800 172.128,120.800 171.795 C 120.800 171.462,120.973 170.877,121.185 170.495 C 122.031 168.971,123.200 166.222,123.200 165.758 C 123.200 165.488,123.335 165.207,123.500 165.133 C 123.973 164.923,125.200 162.544,125.200 161.838 C 125.200 161.487,125.380 161.200,125.600 161.200 C 125.820 161.200,126.000 160.922,126.000 160.583 C 126.000 160.244,126.331 159.611,126.736 159.177 C 127.141 158.742,127.725 157.895,128.033 157.293 C 128.342 156.692,128.911 155.909,129.297 155.553 C 129.684 155.197,130.000 154.740,130.000 154.537 C 130.000 154.334,130.720 153.372,131.600 152.400 C 132.480 151.428,133.200 150.497,133.200 150.331 C 133.200 149.431,146.376 136.400,147.285 136.400 C 147.462 136.400,148.172 135.860,148.863 135.200 C 149.554 134.540,150.322 134.000,150.571 134.000 C 150.820 134.000,151.283 133.640,151.600 133.200 C 151.917 132.760,152.457 132.400,152.800 132.400 C 153.143 132.400,153.683 132.040,154.000 131.600 C 154.317 131.160,154.897 130.800,155.288 130.800 C 155.680 130.800,156.000 130.620,156.000 130.400 C 156.000 130.180,156.270 130.000,156.600 130.000 C 156.930 130.000,157.200 129.820,157.200 129.600 C 157.200 129.380,157.470 129.200,157.800 129.200 C 158.130 129.200,158.400 129.020,158.400 128.800 C 158.400 128.580,158.670 128.400,159.000 128.400 C 159.330 128.400,159.600 128.220,159.600 128.000 C 159.600 127.780,159.960 127.600,160.400 127.600 C 160.840 127.600,161.200 127.420,161.200 127.200 C 161.200 126.980,161.560 126.800,162.000 126.800 C 162.440 126.800,162.800 126.620,162.800 126.400 C 162.800 126.180,163.160 126.000,163.600 126.000 C 164.040 126.000,164.400 125.844,164.400 125.652 C 164.400 125.461,165.008 125.206,165.751 125.085 C 166.494 124.965,167.877 124.491,168.826 124.033 C 169.774 123.575,170.866 123.200,171.252 123.200 C 171.637 123.200,172.064 123.020,172.200 122.800 C 172.336 122.580,172.799 122.400,173.229 122.400 C 173.659 122.400,174.323 122.242,174.705 122.049 C 175.872 121.460,178.208 120.800,179.128 120.800 C 179.608 120.800,180.000 120.620,180.000 120.400 C 180.000 120.180,180.900 120.000,182.000 120.000 C 183.100 120.000,184.000 119.820,184.000 119.600 C 184.000 119.380,184.990 119.200,186.200 119.200 C 187.410 119.200,188.400 119.020,188.400 118.800 C 188.400 118.571,189.600 118.400,191.200 118.400 L 194.000 118.400 194.000 157.800 M211.600 118.800 C 211.600 119.020,212.579 119.200,213.776 119.200 C 214.973 119.200,216.064 119.380,216.200 119.600 C 216.336 119.820,217.247 120.000,218.224 120.000 C 219.201 120.000,220.000 120.160,220.000 120.356 C 220.000 120.552,220.630 120.822,221.400 120.956 C 222.170 121.090,223.430 121.310,224.200 121.444 C 224.970 121.578,225.600 121.848,225.600 122.044 C 225.600 122.240,226.039 122.400,226.576 122.400 C 227.113 122.400,227.664 122.580,227.800 122.800 C 227.936 123.020,228.363 123.200,228.748 123.200 C 229.134 123.200,230.162 123.544,231.032 123.964 C 231.902 124.385,233.286 124.855,234.107 125.009 C 234.928 125.163,235.600 125.449,235.600 125.645 C 235.600 125.840,235.960 126.000,236.400 126.000 C 236.840 126.000,237.200 126.180,237.200 126.400 C 237.200 126.620,237.560 126.800,238.000 126.800 C 238.440 126.800,238.800 126.980,238.800 127.200 C 238.800 127.420,239.160 127.600,239.600 127.600 C 240.040 127.600,240.400 127.780,240.400 128.000 C 240.400 128.220,240.720 128.400,241.112 128.400 C 241.503 128.400,242.083 128.760,242.400 129.200 C 242.717 129.640,243.207 130.000,243.488 130.000 C 243.770 130.000,244.000 130.180,244.000 130.400 C 244.000 130.620,244.320 130.800,244.712 130.800 C 245.103 130.800,245.683 131.160,246.000 131.600 C 246.317 132.040,246.857 132.400,247.200 132.400 C 247.543 132.400,248.083 132.760,248.400 133.200 C 248.717 133.640,249.180 134.000,249.429 134.000 C 249.678 134.000,250.429 134.524,251.099 135.164 C 251.769 135.804,252.695 136.530,253.157 136.777 C 254.237 137.355,257.049 139.915,260.153 143.147 C 261.499 144.548,263.545 146.659,264.700 147.838 C 265.855 149.018,266.800 150.140,266.800 150.332 C 266.800 150.524,267.340 151.246,268.000 151.937 C 268.660 152.628,269.200 153.329,269.201 153.496 C 269.201 153.663,269.726 154.414,270.368 155.164 C 271.009 155.914,271.772 156.994,272.064 157.564 C 272.356 158.134,272.911 158.891,273.297 159.247 C 273.684 159.603,274.000 160.188,274.000 160.547 C 274.000 160.906,274.180 161.200,274.400 161.200 C 274.620 161.200,274.800 161.452,274.800 161.759 C 274.800 162.066,275.451 163.641,276.247 165.259 C 277.042 166.877,278.032 168.892,278.447 169.738 C 278.861 170.584,279.200 171.529,279.200 171.838 C 279.200 172.147,279.380 172.400,279.600 172.400 C 279.820 172.400,280.000 172.850,280.000 173.400 C 280.000 173.950,280.180 174.400,280.400 174.400 C 280.620 174.400,280.800 174.940,280.800 175.600 C 280.800 176.260,280.980 176.800,281.200 176.800 C 281.420 176.800,281.600 177.340,281.600 178.000 C 281.600 178.660,281.780 179.200,282.000 179.200 C 282.220 179.200,282.400 179.819,282.400 180.576 C 282.400 181.333,282.580 182.064,282.800 182.200 C 283.020 182.336,283.200 183.056,283.200 183.800 C 283.200 184.544,283.380 185.264,283.600 185.400 C 283.820 185.536,284.000 186.447,284.000 187.424 C 284.000 188.401,284.180 189.200,284.400 189.200 C 284.625 189.200,284.800 190.325,284.800 191.776 C 284.800 193.193,284.980 194.464,285.200 194.600 C 285.420 194.736,285.600 195.377,285.600 196.024 L 285.600 197.200 245.800 197.200 L 206.000 197.200 206.000 157.800 L 206.000 118.400 208.800 118.400 C 210.400 118.400,211.600 118.571,211.600 118.800 M102.000 211.176 C 102.000 212.043,102.180 212.864,102.400 213.000 C 102.620 213.136,102.800 214.587,102.800 216.224 C 102.800 217.941,102.969 219.200,103.200 219.200 C 103.420 219.200,103.600 220.190,103.600 221.400 C 103.600 222.610,103.780 223.600,104.000 223.600 C 104.220 223.600,104.400 224.320,104.400 225.200 C 104.400 226.080,104.580 226.800,104.800 226.800 C 105.020 226.800,105.200 227.520,105.200 228.400 C 105.200 229.280,105.380 230.000,105.600 230.000 C 105.820 230.000,106.000 230.619,106.000 231.376 C 106.000 232.133,106.180 232.864,106.400 233.000 C 106.620 233.136,106.800 233.777,106.800 234.424 C 106.800 235.071,106.980 235.600,107.200 235.600 C 107.420 235.600,107.600 236.050,107.600 236.600 C 107.600 237.150,107.780 237.600,108.000 237.600 C 108.220 237.600,108.399 237.915,108.398 238.300 C 108.395 239.217,109.714 242.962,110.100 243.133 C 110.265 243.207,110.400 243.612,110.400 244.033 C 110.400 244.455,110.580 244.800,110.800 244.800 C 111.020 244.800,111.200 245.160,111.200 245.600 C 111.200 246.040,111.380 246.400,111.600 246.400 C 111.820 246.400,112.000 246.760,112.000 247.200 C 112.000 247.640,112.180 248.000,112.400 248.000 C 112.620 248.000,112.800 248.360,112.800 248.800 C 112.800 249.240,112.980 249.600,113.200 249.600 C 113.420 249.600,113.600 249.960,113.600 250.400 C 113.600 250.840,113.780 251.200,114.000 251.200 C 114.220 251.200,114.400 251.560,114.400 252.000 C 114.400 252.440,114.580 252.800,114.800 252.800 C 115.020 252.800,115.200 253.036,115.200 253.325 C 115.200 253.613,115.515 254.198,115.900 254.625 C 116.285 255.051,116.862 255.907,117.181 256.526 C 117.501 257.145,118.266 258.179,118.881 258.822 C 119.497 259.466,120.000 260.225,120.000 260.508 C 120.000 260.791,120.360 261.283,120.800 261.600 C 121.240 261.917,121.600 262.385,121.600 262.640 C 121.600 262.895,122.275 263.805,123.100 264.662 C 123.925 265.520,124.845 266.692,125.144 267.266 C 125.985 268.883,135.584 278.400,136.373 278.400 C 136.555 278.400,137.445 279.120,138.352 280.000 C 139.259 280.880,140.198 281.600,140.440 281.600 C 140.681 281.600,141.383 282.140,142.000 282.800 C 142.617 283.460,143.319 284.000,143.560 284.000 C 143.802 284.000,144.000 284.150,144.000 284.332 C 144.000 284.515,144.495 284.920,145.100 285.232 C 145.705 285.545,146.549 286.115,146.975 286.500 C 147.402 286.885,147.987 287.200,148.275 287.200 C 148.564 287.200,148.800 287.380,148.800 287.600 C 148.800 287.820,149.160 288.000,149.600 288.000 C 150.040 288.000,150.400 288.143,150.400 288.319 C 150.400 288.750,156.061 291.600,156.918 291.600 C 157.293 291.600,157.600 291.780,157.600 292.000 C 157.600 292.220,157.960 292.400,158.400 292.400 C 158.840 292.400,159.200 292.580,159.200 292.800 C 159.200 293.020,159.560 293.200,160.000 293.200 C 160.440 293.200,160.800 293.380,160.800 293.600 C 160.800 293.820,161.250 294.000,161.800 294.000 C 162.350 294.000,162.800 294.180,162.800 294.400 C 162.800 294.620,163.149 294.800,163.576 294.800 C 164.003 294.800,164.464 294.980,164.600 295.200 C 164.736 295.420,165.287 295.600,165.824 295.600 C 166.361 295.600,166.800 295.780,166.800 296.000 C 166.800 296.220,167.340 296.400,168.000 296.400 C 168.660 296.400,169.200 296.580,169.200 296.800 C 169.200 297.020,169.740 297.200,170.400 297.200 C 171.060 297.200,171.600 297.380,171.600 297.600 C 171.600 297.820,172.320 298.000,173.200 298.000 C 174.080 298.000,174.800 298.180,174.800 298.400 C 174.800 298.620,175.419 298.800,176.176 298.800 C 176.933 298.800,177.664 298.980,177.800 299.200 C 177.936 299.420,178.847 299.600,179.824 299.600 C 180.801 299.600,181.600 299.780,181.600 300.000 C 181.600 300.222,182.667 300.400,184.000 300.400 C 185.333 300.400,186.400 300.578,186.400 300.800 C 186.400 301.039,187.933 301.200,190.200 301.200 L 194.000 301.200 194.000 320.800 L 194.000 340.400 191.824 340.400 C 190.627 340.400,189.536 340.220,189.400 340.000 C 189.264 339.780,187.903 339.600,186.376 339.600 C 184.792 339.600,183.600 339.428,183.600 339.200 C 183.600 338.980,182.621 338.800,181.424 338.800 C 180.227 338.800,179.136 338.620,179.000 338.400 C 178.864 338.180,177.953 338.000,176.976 338.000 C 175.999 338.000,175.200 337.820,175.200 337.600 C 175.200 337.380,174.390 337.200,173.400 337.200 C 172.410 337.200,171.600 337.020,171.600 336.800 C 171.600 336.580,170.880 336.400,170.000 336.400 C 169.120 336.400,168.400 336.220,168.400 336.000 C 168.400 335.780,167.860 335.600,167.200 335.600 C 166.540 335.600,166.000 335.420,166.000 335.200 C 166.000 334.980,165.471 334.800,164.824 334.800 C 164.177 334.800,163.536 334.620,163.400 334.400 C 163.264 334.180,162.533 334.000,161.776 334.000 C 161.019 334.000,160.400 333.820,160.400 333.600 C 160.400 333.380,160.051 333.200,159.624 333.200 C 159.197 333.200,158.736 333.020,158.600 332.800 C 158.464 332.580,157.913 332.400,157.376 332.400 C 156.839 332.400,156.400 332.220,156.400 332.000 C 156.400 331.780,155.950 331.600,155.400 331.600 C 154.850 331.600,154.400 331.420,154.400 331.200 C 154.400 330.980,154.051 330.800,153.624 330.800 C 153.197 330.800,152.736 330.620,152.600 330.400 C 152.464 330.180,151.913 330.000,151.376 330.000 C 150.839 330.000,150.400 329.820,150.400 329.600 C 150.400 329.380,150.040 329.200,149.600 329.200 C 149.160 329.200,148.800 329.020,148.800 328.800 C 148.800 328.580,148.528 328.400,148.195 328.400 C 147.862 328.400,147.277 328.230,146.895 328.021 C 146.513 327.813,144.400 326.782,142.200 325.731 C 140.000 324.680,138.140 323.680,138.067 323.510 C 137.993 323.339,137.588 323.200,137.167 323.200 C 136.745 323.200,136.400 323.020,136.400 322.800 C 136.400 322.580,136.080 322.400,135.688 322.400 C 135.297 322.400,134.717 322.040,134.400 321.600 C 134.083 321.160,133.503 320.800,133.112 320.800 C 132.720 320.800,132.400 320.620,132.400 320.400 C 132.400 320.180,132.080 320.000,131.688 320.000 C 131.297 320.000,130.717 319.640,130.400 319.200 C 130.083 318.760,129.543 318.400,129.200 318.400 C 128.857 318.400,128.317 318.040,128.000 317.600 C 127.683 317.160,127.196 316.800,126.919 316.800 C 126.641 316.800,125.916 316.351,125.307 315.803 C 123.178 313.884,121.797 312.801,121.482 312.800 C 121.307 312.800,120.710 312.346,120.156 311.792 C 119.602 311.238,118.665 310.474,118.074 310.095 C 116.600 309.150,116.296 308.898,113.735 306.500 C 112.502 305.345,111.319 304.400,111.107 304.400 C 110.895 304.400,110.201 303.815,109.567 303.100 C 107.683 300.978,103.180 296.129,100.500 293.336 C 99.125 291.902,98.000 290.587,98.000 290.413 C 98.000 290.239,97.280 289.355,96.400 288.448 C 95.520 287.541,94.800 286.602,94.800 286.360 C 94.800 286.119,94.260 285.417,93.600 284.800 C 92.940 284.183,92.400 283.474,92.400 283.223 C 92.400 282.972,92.219 282.549,91.998 282.283 C 91.256 281.392,88.000 276.438,88.000 276.201 C 88.000 276.072,87.640 275.580,87.200 275.108 C 86.760 274.636,86.400 274.013,86.400 273.725 C 86.400 273.436,86.220 273.200,86.000 273.200 C 85.780 273.200,85.600 272.840,85.600 272.400 C 85.600 271.960,85.420 271.600,85.200 271.600 C 84.980 271.600,84.800 271.364,84.800 271.075 C 84.800 270.787,84.440 270.164,84.000 269.692 C 83.560 269.220,83.200 268.556,83.200 268.217 C 83.200 267.878,83.020 267.600,82.800 267.600 C 82.580 267.600,82.400 267.240,82.400 266.800 C 82.400 266.360,82.220 266.000,82.000 266.000 C 81.780 266.000,81.600 265.640,81.600 265.200 C 81.600 264.760,81.420 264.400,81.200 264.400 C 80.980 264.400,80.800 264.040,80.800 263.600 C 80.800 263.160,80.620 262.800,80.400 262.800 C 80.180 262.800,80.000 262.440,80.000 262.000 C 80.000 261.560,79.820 261.200,79.600 261.200 C 79.380 261.200,79.200 260.851,79.200 260.424 C 79.200 259.997,79.020 259.536,78.800 259.400 C 78.580 259.264,78.400 258.803,78.400 258.376 C 78.400 257.949,78.220 257.600,78.000 257.600 C 77.780 257.600,77.600 257.240,77.600 256.800 C 77.600 256.360,77.420 256.000,77.200 256.000 C 76.980 256.000,76.800 255.561,76.800 255.024 C 76.800 254.487,76.620 253.936,76.400 253.800 C 76.180 253.664,76.000 253.203,76.000 252.776 C 76.000 252.349,75.843 252.000,75.652 252.000 C 75.460 252.000,75.185 251.107,75.040 250.016 C 74.895 248.925,74.602 247.925,74.388 247.793 C 74.175 247.661,74.000 247.124,74.000 246.600 C 74.000 246.076,73.820 245.536,73.600 245.400 C 73.380 245.264,73.200 244.724,73.200 244.200 C 73.200 243.676,73.020 243.136,72.800 243.000 C 72.580 242.864,72.400 242.223,72.400 241.576 C 72.400 240.929,72.220 240.400,72.000 240.400 C 71.780 240.400,71.600 239.680,71.600 238.800 C 71.600 237.920,71.420 237.200,71.200 237.200 C 70.980 237.200,70.800 236.480,70.800 235.600 C 70.800 234.720,70.620 234.000,70.400 234.000 C 70.180 234.000,70.000 233.291,70.000 232.424 C 70.000 231.557,69.820 230.736,69.600 230.600 C 69.380 230.464,69.200 229.474,69.200 228.400 C 69.200 227.326,69.020 226.336,68.800 226.200 C 68.580 226.064,68.400 224.793,68.400 223.376 C 68.400 221.925,68.225 220.800,68.000 220.800 C 67.762 220.800,67.600 219.275,67.600 217.024 C 67.600 214.937,67.421 213.137,67.200 213.000 C 66.980 212.864,66.800 212.043,66.800 211.176 L 66.800 209.600 84.400 209.600 L 102.000 209.600 102.000 211.176 M194.000 249.200 L 194.000 288.800 190.800 288.800 C 188.933 288.800,187.600 288.633,187.600 288.400 C 187.600 288.180,186.610 288.000,185.400 288.000 C 184.190 288.000,183.200 287.820,183.200 287.600 C 183.200 287.380,182.491 287.200,181.624 287.200 C 180.757 287.200,179.936 287.020,179.800 286.800 C 179.664 286.580,178.933 286.400,178.176 286.400 C 177.419 286.400,176.800 286.220,176.800 286.000 C 176.800 285.780,176.260 285.600,175.600 285.600 C 174.940 285.600,174.400 285.420,174.400 285.200 C 174.400 284.980,173.770 284.800,173.000 284.800 C 172.230 284.800,171.600 284.620,171.600 284.400 C 171.600 284.180,171.251 284.000,170.824 284.000 C 170.397 284.000,169.936 283.820,169.800 283.600 C 169.664 283.380,169.113 283.200,168.576 283.200 C 168.039 283.200,167.600 283.020,167.600 282.800 C 167.600 282.580,167.240 282.400,166.800 282.400 C 166.360 282.400,166.000 282.220,166.000 282.000 C 166.000 281.780,165.640 281.600,165.200 281.600 C 164.760 281.600,164.400 281.420,164.400 281.200 C 164.400 280.980,164.040 280.800,163.600 280.800 C 163.160 280.800,162.800 280.620,162.800 280.400 C 162.800 280.180,162.528 280.000,162.195 280.000 C 161.639 280.000,160.078 279.278,159.600 278.800 C 159.490 278.690,158.680 278.218,157.800 277.751 C 154.429 275.962,152.171 274.603,151.425 273.915 C 150.998 273.522,150.453 273.200,150.213 273.200 C 149.973 273.200,149.517 272.840,149.200 272.400 C 148.883 271.960,148.381 271.600,148.086 271.600 C 147.790 271.600,146.705 270.745,145.674 269.700 C 144.643 268.655,143.305 267.545,142.700 267.232 C 142.095 266.920,141.600 266.524,141.600 266.352 C 141.600 266.180,140.385 264.777,138.900 263.234 C 133.626 257.756,132.400 256.382,132.400 255.954 C 132.400 255.716,131.860 255.017,131.200 254.400 C 130.540 253.783,130.000 253.031,130.000 252.728 C 130.000 252.425,129.640 251.917,129.200 251.600 C 128.760 251.283,128.400 250.743,128.400 250.400 C 128.400 250.057,128.040 249.517,127.600 249.200 C 127.160 248.883,126.800 248.303,126.800 247.912 C 126.800 247.520,126.620 247.200,126.400 247.200 C 126.180 247.200,126.000 246.930,126.000 246.600 C 126.000 246.270,125.820 246.000,125.600 246.000 C 125.380 246.000,125.200 245.821,125.200 245.603 C 125.200 244.920,123.827 242.000,123.506 242.000 C 123.338 242.000,123.200 241.640,123.200 241.200 C 123.200 240.760,123.020 240.400,122.800 240.400 C 122.580 240.400,122.400 240.040,122.400 239.600 C 122.400 239.160,122.220 238.800,122.000 238.800 C 121.780 238.800,121.600 238.361,121.600 237.824 C 121.600 237.287,121.420 236.736,121.200 236.600 C 120.980 236.464,120.800 236.003,120.800 235.576 C 120.800 235.149,120.620 234.800,120.400 234.800 C 120.180 234.800,120.000 234.361,120.000 233.824 C 120.000 233.287,119.820 232.736,119.600 232.600 C 119.380 232.464,119.200 231.924,119.200 231.400 C 119.200 230.876,119.020 230.336,118.800 230.200 C 118.580 230.064,118.400 229.524,118.400 229.000 C 118.400 228.476,118.220 227.936,118.000 227.800 C 117.780 227.664,117.600 227.113,117.600 226.576 C 117.600 226.039,117.420 225.600,117.200 225.600 C 116.980 225.600,116.800 224.801,116.800 223.824 C 116.800 222.847,116.620 221.936,116.400 221.800 C 116.180 221.664,116.000 220.764,116.000 219.800 C 116.000 218.836,115.820 217.936,115.600 217.800 C 115.380 217.664,115.200 216.494,115.200 215.200 C 115.200 213.906,115.020 212.736,114.800 212.600 C 114.580 212.464,114.400 211.733,114.400 210.976 L 114.400 209.600 154.200 209.600 L 194.000 209.600 194.000 249.200 M285.600 211.200 C 285.600 212.080,285.420 212.800,285.200 212.800 C 284.975 212.800,284.800 213.925,284.800 215.376 C 284.800 216.793,284.620 218.064,284.400 218.200 C 284.180 218.336,284.000 219.337,284.000 220.424 C 284.000 221.511,283.820 222.400,283.600 222.400 C 283.380 222.400,283.200 223.120,283.200 224.000 C 283.200 224.880,283.020 225.600,282.800 225.600 C 282.580 225.600,282.400 226.140,282.400 226.800 C 282.400 227.460,282.220 228.000,282.000 228.000 C 281.780 228.000,281.600 228.439,281.600 228.976 C 281.600 229.513,281.420 230.064,281.200 230.200 C 280.980 230.336,280.800 230.876,280.800 231.400 C 280.800 231.924,280.620 232.464,280.400 232.600 C 280.180 232.736,280.000 233.287,280.000 233.824 C 280.000 234.361,279.820 234.800,279.600 234.800 C 279.380 234.800,279.200 235.160,279.200 235.600 C 279.200 236.040,279.053 236.400,278.872 236.400 C 278.692 236.400,278.300 237.300,278.000 238.400 C 277.700 239.500,277.308 240.400,277.128 240.400 C 276.947 240.400,276.800 240.760,276.800 241.200 C 276.800 241.640,276.665 242.002,276.500 242.005 C 276.335 242.008,275.660 243.178,275.000 244.605 C 274.340 246.032,273.665 247.200,273.500 247.200 C 273.335 247.200,273.200 247.520,273.200 247.912 C 273.200 248.303,272.840 248.883,272.400 249.200 C 271.960 249.517,271.600 250.057,271.600 250.400 C 271.600 250.743,271.240 251.283,270.800 251.600 C 270.360 251.917,270.000 252.425,270.000 252.728 C 270.000 253.031,269.460 253.783,268.800 254.400 C 268.140 255.017,267.600 255.716,267.600 255.954 C 267.600 256.193,266.792 257.245,265.803 258.294 C 264.815 259.342,262.745 261.534,261.203 263.165 C 259.662 264.796,258.400 266.281,258.400 266.465 C 258.400 266.649,258.146 266.800,257.835 266.800 C 257.524 266.800,256.173 267.880,254.832 269.200 C 253.492 270.520,252.214 271.600,251.994 271.600 C 251.773 271.600,251.028 272.140,250.337 272.800 C 249.646 273.460,248.853 274.000,248.574 274.000 C 248.295 274.000,248.007 274.138,247.933 274.306 C 247.762 274.699,242.864 277.600,242.371 277.600 C 242.167 277.600,242.000 277.780,242.000 278.000 C 242.000 278.220,241.655 278.400,241.233 278.400 C 240.812 278.400,240.407 278.535,240.333 278.700 C 240.145 279.124,235.201 281.600,234.544 281.600 C 234.245 281.600,234.000 281.780,234.000 282.000 C 234.000 282.220,233.640 282.400,233.200 282.400 C 232.760 282.400,232.400 282.580,232.400 282.800 C 232.400 283.020,232.038 283.200,231.595 283.200 C 231.152 283.200,230.432 283.380,229.995 283.600 C 229.558 283.820,228.842 284.180,228.405 284.400 C 227.968 284.620,227.248 284.800,226.805 284.800 C 226.362 284.800,226.000 284.980,226.000 285.200 C 226.000 285.420,225.370 285.600,224.600 285.600 C 223.830 285.600,223.200 285.780,223.200 286.000 C 223.200 286.220,222.660 286.400,222.000 286.400 C 221.340 286.400,220.800 286.580,220.800 286.800 C 220.800 287.020,219.900 287.200,218.800 287.200 C 217.700 287.200,216.800 287.380,216.800 287.600 C 216.800 287.820,215.900 288.000,214.800 288.000 C 213.700 288.000,212.800 288.180,212.800 288.400 C 212.800 288.635,211.400 288.800,209.400 288.800 L 206.000 288.800 206.000 249.200 L 206.000 209.600 245.800 209.600 L 285.600 209.600 285.600 211.200 M316.600 281.343 C 315.380 281.807,312.800 284.095,312.800 284.711 C 312.800 284.897,312.480 285.398,312.089 285.825 C 311.698 286.251,310.938 287.230,310.400 288.000 C 309.165 289.767,308.813 290.211,307.700 291.401 C 307.205 291.930,306.800 292.476,306.800 292.613 C 306.800 292.750,306.080 293.554,305.200 294.400 C 304.320 295.246,303.600 296.221,303.600 296.569 C 303.600 296.916,303.420 297.200,303.200 297.200 C 302.978 297.200,302.800 298.267,302.800 299.600 C 302.800 300.933,302.978 302.000,303.200 302.000 C 303.420 302.000,303.600 302.278,303.600 302.618 C 303.600 302.958,304.042 303.678,304.582 304.218 C 305.122 304.758,305.842 305.200,306.182 305.200 C 306.522 305.200,306.800 305.380,306.800 305.600 C 306.800 305.820,307.790 306.000,309.000 306.000 C 310.210 306.000,311.200 305.820,311.200 305.600 C 311.200 305.380,311.484 305.200,311.831 305.200 C 312.478 305.200,317.600 300.188,317.600 299.554 C 317.600 299.360,318.320 298.459,319.200 297.552 C 320.080 296.645,320.800 295.744,320.800 295.548 C 320.800 295.353,321.340 294.628,322.000 293.937 C 322.660 293.246,323.200 292.521,323.200 292.324 C 323.200 292.127,323.548 291.593,323.973 291.137 C 325.234 289.784,325.573 284.000,324.392 284.000 C 324.206 284.000,323.940 283.640,323.800 283.200 C 323.660 282.760,323.288 282.400,322.973 282.400 C 322.658 282.400,322.400 282.220,322.400 282.000 C 322.400 281.780,322.051 281.600,321.624 281.600 C 321.197 281.600,320.736 281.420,320.600 281.200 C 320.280 280.682,318.132 280.759,316.600 281.343 " stroke="none" fill="#040404" fill-rule="evenodd"></path><path id="path1" d="" stroke="none" fill="#080404" fill-rule="evenodd"></path><path id="path2" d="" stroke="none" fill="#080404" fill-rule="evenodd"></path><path id="path3" d="" stroke="none" fill="#080404" fill-rule="evenodd"></path><path id="path4" d="" stroke="none" fill="#080404" fill-rule="evenodd"></path></g></svg>