<?xml version="1.0" standalone="no"?>
<!DOCTYPE svg PUBLIC "-//W3C//DTD SVG 20010904//EN"
 "http://www.w3.org/TR/2001/REC-SVG-20010904/DTD/svg10.dtd">
<svg version="1.0" xmlns="http://www.w3.org/2000/svg"
 width="512.000000pt" height="512.000000pt" viewBox="0 0 512.000000 512.000000"
 preserveAspectRatio="xMidYMid meet">

<g transform="translate(0.000000,512.000000) scale(0.100000,-0.100000)"
fill="#FFFFFF" stroke="none">
<path d="M2506 4908 c-13 -19 -16 -61 -16 -259 l0 -236 -82 -7 c-622 -51
-1215 -456 -1507 -1026 -115 -224 -174 -437 -206 -742 l-6 -58 -255 0 c-241 0
-255 -1 -274 -20 -26 -26 -26 -72 1 -96 19 -17 42 -19 274 -22 l254 -3 5 -42
c3 -23 8 -69 11 -102 43 -447 289 -913 640 -1215 316 -272 693 -429 1110 -463
l30 -2 5 -243 c5 -241 5 -244 29 -263 31 -26 57 -24 86 6 l25 24 0 234 0 234
127 12 c261 25 474 86 695 197 84 42 180 101 190 118 16 24 8 75 -14 90 -34
24 -55 20 -137 -28 -166 -98 -349 -170 -523 -206 -104 -21 -243 -40 -300 -40
l-38 0 0 258 0 258 113 18 c550 86 981 522 1049 1063 l12 93 279 0 278 0 -5
-42 c-3 -24 -8 -70 -11 -103 -10 -90 -31 -188 -67 -302 -35 -114 -32 -144 18
-163 41 -16 75 6 97 65 36 94 77 275 88 388 6 62 13 122 15 134 4 22 7 22 225
25 218 3 221 3 240 27 25 30 24 66 -1 91 -19 19 -33 20 -239 20 -246 0 -231
-5 -231 78 0 116 -57 372 -116 525 -222 578 -699 1010 -1286 1167 -129 34
-287 60 -370 60 -95 0 -88 -19 -88 244 0 266 -3 276 -70 276 -29 0 -43 -6 -54
-22z m255 -638 c843 -85 1496 -735 1588 -1580 6 -52 7 -98 3 -102 -5 -5 -129
-7 -277 -6 l-269 3 -13 93 c-55 410 -304 761 -673 947 -133 67 -253 101 -457
131 l-33 5 0 259 c0 216 2 260 14 260 8 0 60 -5 117 -10z m-271 -255 l0 -254
-32 -5 c-205 -30 -325 -64 -458 -131 -369 -186 -618 -537 -673 -947 l-13 -93
-232 -3 -232 -2 0 46 c0 76 29 246 61 361 86 306 247 574 481 798 210 202 464
349 738 427 92 26 260 56 318 57 l42 1 0 -255z m0 -915 l0 -520 -515 0 -515 0
0 43 c1 61 33 200 69 293 54 139 125 247 241 365 179 182 370 284 609 324 42
7 84 13 94 14 16 1 17 -30 17 -519z m350 483 c114 -29 289 -112 381 -182 88
-67 203 -190 263 -279 90 -136 159 -324 173 -474 l6 -68 -517 0 -516 0 0 520
0 520 58 -6 c31 -4 100 -17 152 -31z m-1520 -1179 c0 -20 9 -81 20 -135 106
-517 511 -902 1038 -986 l112 -17 0 -257 0 -258 -37 5 c-131 17 -249 39 -323
61 -387 112 -708 335 -945 658 -184 251 -308 580 -331 878 l-7 87 237 0 236 0
0 -36z m1170 -480 l0 -516 -57 7 c-448 54 -812 365 -937 799 -15 49 -29 120
-32 157 l-7 69 517 0 516 0 0 -516z m1170 479 c-1 -52 -33 -195 -63 -273 -117
-312 -361 -551 -671 -659 -80 -28 -229 -61 -277 -61 -18 0 -19 19 -19 515 l0
515 515 0 515 0 0 -37z"/>
<path d="M3971 1410 c-86 -106 -99 -141 -63 -173 34 -31 75 -21 119 26 72 78
123 153 123 180 0 35 -33 67 -69 67 -25 0 -41 -15 -110 -100z"/>
</g>
</svg>
