<?xml version="1.0" encoding="UTF-8"?>
<!DOCTYPE svg PUBLIC "-//W3C//DTD SVG 1.1//EN" "http://www.w3.org/Graphics/SVG/1.1/DTD/svg11.dtd">
<svg xmlns="http://www.w3.org/2000/svg" version="1.1" width="512px" height="512px" style="shape-rendering:geometricPrecision; text-rendering:geometricPrecision; image-rendering:optimizeQuality; fill-rule:evenodd; clip-rule:evenodd" xmlns:xlink="http://www.w3.org/1999/xlink">
<g><path style="opacity:0.998" fill="#333333" d="M 55.5,-0.5 C 189.167,-0.5 322.833,-0.5 456.5,-0.5C 461.081,1.14011 465.748,2.80677 470.5,4.5C 471.659,6.25027 473.326,7.25027 475.5,7.5C 477.531,9.52239 479.865,11.1891 482.5,12.5C 483.5,14.1667 484.833,15.5 486.5,16.5C 487.921,19.0094 489.588,21.3428 491.5,23.5C 492.263,25.3684 493.263,27.0351 494.5,28.5C 495.85,31.5721 497.183,34.5721 498.5,37.5C 498.366,39.2915 498.699,40.9582 499.5,42.5C 500.272,46.4517 500.605,50.4517 500.5,54.5C 500.5,56.8333 500.5,59.1667 500.5,61.5C 499.25,67.588 497.583,73.588 495.5,79.5C 494.833,79.5 494.5,79.8333 494.5,80.5C 489.167,90.5 481.5,98.1667 471.5,103.5C 470.833,103.5 470.5,103.833 470.5,104.5C 464.735,106.977 458.735,108.643 452.5,109.5C 323.652,109.513 194.652,109.513 65.5,109.5C 61.3998,109.763 57.3998,109.43 53.5,108.5C 51.5648,107.85 49.5648,107.517 47.5,107.5C 44.6865,105.93 41.6865,104.597 38.5,103.5C 37.5637,102.026 36.2303,101.026 34.5,100.5C 32.3428,98.5879 30.0094,96.9213 27.5,95.5C 26.5,93.8333 25.1667,92.5 23.5,91.5C 22.1891,88.8646 20.5224,86.5313 18.5,84.5C 18.2503,82.326 17.2503,80.6594 15.5,79.5C 14.696,76.4214 13.696,73.4214 12.5,70.5C 12.1667,68.5 11.8333,66.5 11.5,64.5C 10.6403,60.5662 10.307,56.5662 10.5,52.5C 10.5751,49.7938 10.9084,47.1272 11.5,44.5C 12.6515,37.377 14.9848,30.7104 18.5,24.5C 19.1667,24.5 19.5,24.1667 19.5,23.5C 23.5,17.5 28.5,12.5 34.5,8.5C 35.1667,8.5 35.5,8.16667 35.5,7.5C 36.1667,7.5 36.5,7.16667 36.5,6.5C 42.7046,3.54595 49.0379,1.21262 55.5,-0.5 Z"/></g>
<g><path style="opacity:0.024" fill="#43443f" d="M 15.5,0.5 C 17.1992,0.339822 18.8659,0.506489 20.5,1C 14.6667,8.16667 8.16667,14.6667 1,20.5C 0.143313,17.4495 0.809979,14.7828 3,12.5C 7.06209,8.26879 11.2288,4.26879 15.5,0.5 Z"/></g>
<g><path style="opacity:0.035" fill="#444440" d="M 36.5,6.5 C 35.8333,6.5 35.5,6.83333 35.5,7.5C 34.8333,7.5 34.5,7.83333 34.5,8.5C 28.5,12.5 23.5,17.5 19.5,23.5C 18.8333,23.5 18.5,23.8333 18.5,24.5C 12.8366,29.9957 7.00326,35.3291 1,40.5C 0.143313,37.4495 0.809979,34.7828 3,32.5C 13.5293,21.6366 24.3626,11.1366 35.5,1C 37.1667,0.333333 38.8333,0.333333 40.5,1C 39.3353,2.9917 38.002,4.82504 36.5,6.5 Z"/></g>
<g><path style="opacity:0.017" fill="#43433f" d="M 475.5,7.5 C 473.326,7.25027 471.659,6.25027 470.5,4.5C 473.251,1.56299 476.585,0.396327 480.5,1C 479.001,3.32793 477.334,5.4946 475.5,7.5 Z"/></g>
<g><path style="opacity:0.031" fill="#43443f" d="M 486.5,16.5 C 484.833,15.5 483.5,14.1667 482.5,12.5C 486.665,8.50319 490.998,4.66985 495.5,1C 497.167,0.333333 498.833,0.333333 500.5,1C 495.996,6.33601 491.329,11.5027 486.5,16.5 Z"/></g>
<g><path style="opacity:0.034" fill="#444440" d="M 511.5,5.5 C 511.5,7.16667 511.5,8.83333 511.5,10.5C 505.861,16.4737 500.195,22.4737 494.5,28.5C 493.263,27.0351 492.263,25.3684 491.5,23.5C 497.868,17.1298 504.535,11.1298 511.5,5.5 Z"/></g>
<g><path style="opacity:0.029" fill="#43433f" d="M 511.5,25.5 C 511.5,27.1667 511.5,28.8333 511.5,30.5C 507.86,34.8062 503.86,38.8062 499.5,42.5C 498.699,40.9582 498.366,39.2915 498.5,37.5C 502.207,32.7923 506.54,28.7923 511.5,25.5 Z"/></g>
<g><path style="opacity:0.026" fill="#43433f" d="M 11.5,44.5 C 10.9084,47.1272 10.5751,49.7938 10.5,52.5C 7.49921,55.3316 4.33254,57.9983 1,60.5C 0.143313,57.4495 0.809979,54.7828 3,52.5C 5.7028,49.6286 8.53613,46.9619 11.5,44.5 Z"/></g>
<g><path style="opacity:0.027" fill="#43443f" d="M 511.5,45.5 C 511.5,47.1667 511.5,48.8333 511.5,50.5C 508.194,54.4729 504.527,58.1396 500.5,61.5C 500.5,59.1667 500.5,56.8333 500.5,54.5C 503.876,51.1218 507.543,48.1218 511.5,45.5 Z"/></g>
<g><path style="opacity:0.027" fill="#43433f" d="M 11.5,64.5 C 11.8333,66.5 12.1667,68.5 12.5,70.5C 8.83414,73.9973 5.00081,77.3307 1,80.5C 0.143313,77.4495 0.809979,74.7828 3,72.5C 5.7028,69.6286 8.53613,66.9619 11.5,64.5 Z"/></g>
<g><path style="opacity:0.042" fill="#43433f" d="M 511.5,65.5 C 511.5,67.1667 511.5,68.8333 511.5,70.5C 468.527,113.806 425.527,157.14 382.5,200.5C 380.167,200.5 377.833,200.5 375.5,200.5C 407.167,168.5 438.833,136.5 470.5,104.5C 471.167,104.5 471.5,104.167 471.5,103.5C 481.5,98.1667 489.167,90.5 494.5,80.5C 495.167,80.5 495.5,80.1667 495.5,79.5C 500.537,74.4607 505.871,69.794 511.5,65.5 Z"/></g>
<g><path style="opacity:0.033" fill="#434340" d="M 15.5,79.5 C 17.2503,80.6594 18.2503,82.326 18.5,84.5C 12.8366,89.9957 7.00326,95.3291 1,100.5C 0.143313,97.4495 0.809979,94.7828 3,92.5C 7.37016,88.2978 11.5368,83.9645 15.5,79.5 Z"/></g>
<g><path style="opacity:0.042" fill="#43443f" d="M 511.5,85.5 C 511.5,87.1667 511.5,88.8333 511.5,90.5C 475.194,127.14 438.861,163.806 402.5,200.5C 400.167,200.5 397.833,200.5 395.5,200.5C 433.528,161.471 472.195,123.138 511.5,85.5 Z"/></g>
<g><path style="opacity:0.036" fill="#43443f" d="M 23.5,91.5 C 25.1667,92.5 26.5,93.8333 27.5,95.5C 18.8381,103.995 10.0048,112.328 1,120.5C 0.143313,117.449 0.809979,114.783 3,112.5C 10.0359,105.632 16.8693,98.6315 23.5,91.5 Z"/></g>
<g><path style="opacity:0.038" fill="#43433f" d="M 34.5,100.5 C 36.2303,101.026 37.5637,102.026 38.5,103.5C 26.5057,116.327 14.0057,128.661 1,140.5C 0.143313,137.449 0.809979,134.783 3,132.5C 13.7021,121.965 24.2021,111.298 34.5,100.5 Z"/></g>
<g><path style="opacity:0.041" fill="#43443f" d="M 511.5,105.5 C 511.5,107.167 511.5,108.833 511.5,110.5C 481.861,140.473 452.194,170.473 422.5,200.5C 420.167,200.5 417.833,200.5 415.5,200.5C 446.862,168.138 478.862,136.471 511.5,105.5 Z"/></g>
<g><path style="opacity:0.04" fill="#43433f" d="M 47.5,107.5 C 49.5648,107.517 51.5648,107.85 53.5,108.5C 36.5062,126.327 19.0062,143.66 1,160.5C 0.143313,157.449 0.809979,154.783 3,152.5C 18.0352,137.632 32.8685,122.632 47.5,107.5 Z"/></g>
<g><path style="opacity:0.042" fill="#43433f" d="M 65.5,109.5 C 194.652,109.513 323.652,109.513 452.5,109.5C 422.5,139.833 392.5,170.167 362.5,200.5C 360.167,200.5 357.833,200.5 355.5,200.5C 384.965,170.535 414.632,140.701 444.5,111C 440.167,110.333 435.833,110.333 431.5,111C 401.632,140.701 371.965,170.535 342.5,200.5C 340.167,200.5 337.833,200.5 335.5,200.5C 364.965,170.535 394.632,140.701 424.5,111C 420.167,110.333 415.833,110.333 411.5,111C 381.632,140.701 351.965,170.535 322.5,200.5C 320.167,200.5 317.833,200.5 315.5,200.5C 344.965,170.535 374.632,140.701 404.5,111C 400.167,110.333 395.833,110.333 391.5,111C 361.632,140.701 331.965,170.535 302.5,200.5C 300.167,200.5 297.833,200.5 295.5,200.5C 324.965,170.535 354.632,140.701 384.5,111C 380.167,110.333 375.833,110.333 371.5,111C 341.632,140.701 311.965,170.535 282.5,200.5C 280.167,200.5 277.833,200.5 275.5,200.5C 304.965,170.535 334.632,140.701 364.5,111C 360.167,110.333 355.833,110.333 351.5,111C 321.632,140.701 291.965,170.535 262.5,200.5C 260.167,200.5 257.833,200.5 255.5,200.5C 284.965,170.535 314.632,140.701 344.5,111C 340.167,110.333 335.833,110.333 331.5,111C 301.632,140.701 271.965,170.535 242.5,200.5C 240.167,200.5 237.833,200.5 235.5,200.5C 264.965,170.535 294.632,140.701 324.5,111C 320.167,110.333 315.833,110.333 311.5,111C 281.632,140.701 251.965,170.535 222.5,200.5C 220.167,200.5 217.833,200.5 215.5,200.5C 244.965,170.535 274.632,140.701 304.5,111C 300.167,110.333 295.833,110.333 291.5,111C 261.632,140.701 231.965,170.535 202.5,200.5C 200.167,200.5 197.833,200.5 195.5,200.5C 224.965,170.535 254.632,140.701 284.5,111C 280.167,110.333 275.833,110.333 271.5,111C 241.632,140.701 211.965,170.535 182.5,200.5C 180.167,200.5 177.833,200.5 175.5,200.5C 204.965,170.535 234.632,140.701 264.5,111C 260.167,110.333 255.833,110.333 251.5,111C 221.632,140.701 191.965,170.535 162.5,200.5C 160.167,200.5 157.833,200.5 155.5,200.5C 184.965,170.535 214.632,140.701 244.5,111C 240.167,110.333 235.833,110.333 231.5,111C 201.632,140.701 171.965,170.535 142.5,200.5C 140.167,200.5 137.833,200.5 135.5,200.5C 164.965,170.535 194.632,140.701 224.5,111C 220.167,110.333 215.833,110.333 211.5,111C 181.632,140.701 151.965,170.535 122.5,200.5C 120.167,200.5 117.833,200.5 115.5,200.5C 144.965,170.535 174.632,140.701 204.5,111C 200.167,110.333 195.833,110.333 191.5,111C 161.632,140.701 131.965,170.535 102.5,200.5C 100.167,200.5 97.8333,200.5 95.5,200.5C 124.965,170.535 154.632,140.701 184.5,111C 180.167,110.333 175.833,110.333 171.5,111C 141.632,140.701 111.965,170.535 82.5,200.5C 80.1667,200.5 77.8333,200.5 75.5,200.5C 104.965,170.535 134.632,140.701 164.5,111C 160.167,110.333 155.833,110.333 151.5,111C 121.632,140.701 91.9652,170.535 62.5,200.5C 59.7628,200.401 57.0961,200.735 54.5,201.5C 84.2985,171.201 114.298,141.035 144.5,111C 140.167,110.333 135.833,110.333 131.5,111C 98.6318,143.701 65.9652,176.535 33.5,209.5C 32.8333,209.5 32.5,209.833 32.5,210.5C 31.8333,210.5 31.5,210.833 31.5,211.5C 30.8333,211.5 30.5,211.833 30.5,212.5C 27.5271,214.806 24.8605,217.473 22.5,220.5C 21.8333,220.5 21.5,220.833 21.5,221.5C 20.8333,221.5 20.5,221.833 20.5,222.5C 19.8333,222.5 19.5,222.833 19.5,223.5C 13.5035,229.329 7.33684,234.996 1,240.5C 0.143313,237.449 0.809979,234.783 3,232.5C 43.5,192 84,151.5 124.5,111C 120.167,110.333 115.833,110.333 111.5,111C 74.9723,147.861 38.139,184.361 1,220.5C 0.143313,217.449 0.809979,214.783 3,212.5C 36.8333,178.667 70.6667,144.833 104.5,111C 100.167,110.333 95.8333,110.333 91.5,111C 61.6388,141.195 31.4722,171.028 1,200.5C 0.143313,197.449 0.809979,194.783 3,192.5C 30.1667,165.333 57.3333,138.167 84.5,111C 80.1667,110.333 75.8333,110.333 71.5,111C 48.3053,134.528 24.8053,157.695 1,180.5C 0.143313,177.449 0.809979,174.783 3,172.5C 24.035,151.632 44.8683,130.632 65.5,109.5 Z M 75.5,200.5 C 71.1667,200.5 66.8333,200.5 62.5,200.5C 91.9652,170.535 121.632,140.701 151.5,111C 155.833,110.333 160.167,110.333 164.5,111C 134.632,140.701 104.965,170.535 75.5,200.5 Z M 95.5,200.5 C 91.1667,200.5 86.8333,200.5 82.5,200.5C 111.965,170.535 141.632,140.701 171.5,111C 175.833,110.333 180.167,110.333 184.5,111C 154.632,140.701 124.965,170.535 95.5,200.5 Z M 115.5,200.5 C 111.167,200.5 106.833,200.5 102.5,200.5C 131.965,170.535 161.632,140.701 191.5,111C 195.833,110.333 200.167,110.333 204.5,111C 174.632,140.701 144.965,170.535 115.5,200.5 Z M 135.5,200.5 C 131.167,200.5 126.833,200.5 122.5,200.5C 151.965,170.535 181.632,140.701 211.5,111C 215.833,110.333 220.167,110.333 224.5,111C 194.632,140.701 164.965,170.535 135.5,200.5 Z M 155.5,200.5 C 151.167,200.5 146.833,200.5 142.5,200.5C 171.965,170.535 201.632,140.701 231.5,111C 235.833,110.333 240.167,110.333 244.5,111C 214.632,140.701 184.965,170.535 155.5,200.5 Z M 175.5,200.5 C 171.167,200.5 166.833,200.5 162.5,200.5C 191.965,170.535 221.632,140.701 251.5,111C 255.833,110.333 260.167,110.333 264.5,111C 234.632,140.701 204.965,170.535 175.5,200.5 Z M 195.5,200.5 C 191.167,200.5 186.833,200.5 182.5,200.5C 211.965,170.535 241.632,140.701 271.5,111C 275.833,110.333 280.167,110.333 284.5,111C 254.632,140.701 224.965,170.535 195.5,200.5 Z M 215.5,200.5 C 211.167,200.5 206.833,200.5 202.5,200.5C 231.965,170.535 261.632,140.701 291.5,111C 295.833,110.333 300.167,110.333 304.5,111C 274.632,140.701 244.965,170.535 215.5,200.5 Z M 235.5,200.5 C 231.167,200.5 226.833,200.5 222.5,200.5C 251.965,170.535 281.632,140.701 311.5,111C 315.833,110.333 320.167,110.333 324.5,111C 294.632,140.701 264.965,170.535 235.5,200.5 Z M 255.5,200.5 C 251.167,200.5 246.833,200.5 242.5,200.5C 271.965,170.535 301.632,140.701 331.5,111C 335.833,110.333 340.167,110.333 344.5,111C 314.632,140.701 284.965,170.535 255.5,200.5 Z M 275.5,200.5 C 271.167,200.5 266.833,200.5 262.5,200.5C 291.965,170.535 321.632,140.701 351.5,111C 355.833,110.333 360.167,110.333 364.5,111C 334.632,140.701 304.965,170.535 275.5,200.5 Z M 295.5,200.5 C 291.167,200.5 286.833,200.5 282.5,200.5C 311.965,170.535 341.632,140.701 371.5,111C 375.833,110.333 380.167,110.333 384.5,111C 354.632,140.701 324.965,170.535 295.5,200.5 Z M 315.5,200.5 C 311.167,200.5 306.833,200.5 302.5,200.5C 331.965,170.535 361.632,140.701 391.5,111C 395.833,110.333 400.167,110.333 404.5,111C 374.632,140.701 344.965,170.535 315.5,200.5 Z M 335.5,200.5 C 331.167,200.5 326.833,200.5 322.5,200.5C 351.965,170.535 381.632,140.701 411.5,111C 415.833,110.333 420.167,110.333 424.5,111C 394.632,140.701 364.965,170.535 335.5,200.5 Z M 355.5,200.5 C 351.167,200.5 346.833,200.5 342.5,200.5C 371.965,170.535 401.632,140.701 431.5,111C 435.833,110.333 440.167,110.333 444.5,111C 414.632,140.701 384.965,170.535 355.5,200.5 Z"/></g>
<g><path style="opacity:0.041" fill="#43443f" d="M 511.5,125.5 C 511.5,127.167 511.5,128.833 511.5,130.5C 488.527,153.806 465.527,177.14 442.5,200.5C 440.167,200.5 437.833,200.5 435.5,200.5C 460.196,174.804 485.529,149.804 511.5,125.5 Z"/></g>
<g><path style="opacity:0.04" fill="#43433f" d="M 511.5,145.5 C 511.5,147.167 511.5,148.833 511.5,150.5C 494.527,167.807 477.527,185.14 460.5,202.5C 458.694,201.976 457.028,201.309 455.5,200.5C 473.53,181.47 492.197,163.136 511.5,145.5 Z"/></g>
<g><path style="opacity:0.039" fill="#43433f" d="M 511.5,165.5 C 511.5,167.167 511.5,168.833 511.5,170.5C 499.527,183.14 487.194,195.473 474.5,207.5C 472.62,207.771 471.287,207.104 470.5,205.5C 483.531,191.469 497.198,178.135 511.5,165.5 Z"/></g>
<g><path style="opacity:0.037" fill="#43433f" d="M 511.5,185.5 C 511.5,187.167 511.5,188.833 511.5,190.5C 503.194,199.473 494.527,208.14 485.5,216.5C 483.5,216.5 482.5,215.5 482.5,213.5C 491.533,203.467 501.199,194.133 511.5,185.5 Z"/></g>
<g><path style="opacity:0.998" fill="#333333" d="M 62.5,200.5 C 66.8333,200.5 71.1667,200.5 75.5,200.5C 77.8333,200.5 80.1667,200.5 82.5,200.5C 86.8333,200.5 91.1667,200.5 95.5,200.5C 97.8333,200.5 100.167,200.5 102.5,200.5C 106.833,200.5 111.167,200.5 115.5,200.5C 117.833,200.5 120.167,200.5 122.5,200.5C 126.833,200.5 131.167,200.5 135.5,200.5C 137.833,200.5 140.167,200.5 142.5,200.5C 146.833,200.5 151.167,200.5 155.5,200.5C 157.833,200.5 160.167,200.5 162.5,200.5C 166.833,200.5 171.167,200.5 175.5,200.5C 177.833,200.5 180.167,200.5 182.5,200.5C 186.833,200.5 191.167,200.5 195.5,200.5C 197.833,200.5 200.167,200.5 202.5,200.5C 206.833,200.5 211.167,200.5 215.5,200.5C 217.833,200.5 220.167,200.5 222.5,200.5C 226.833,200.5 231.167,200.5 235.5,200.5C 237.833,200.5 240.167,200.5 242.5,200.5C 246.833,200.5 251.167,200.5 255.5,200.5C 257.833,200.5 260.167,200.5 262.5,200.5C 266.833,200.5 271.167,200.5 275.5,200.5C 277.833,200.5 280.167,200.5 282.5,200.5C 286.833,200.5 291.167,200.5 295.5,200.5C 297.833,200.5 300.167,200.5 302.5,200.5C 306.833,200.5 311.167,200.5 315.5,200.5C 317.833,200.5 320.167,200.5 322.5,200.5C 326.833,200.5 331.167,200.5 335.5,200.5C 337.833,200.5 340.167,200.5 342.5,200.5C 346.833,200.5 351.167,200.5 355.5,200.5C 357.833,200.5 360.167,200.5 362.5,200.5C 366.833,200.5 371.167,200.5 375.5,200.5C 377.833,200.5 380.167,200.5 382.5,200.5C 386.833,200.5 391.167,200.5 395.5,200.5C 397.833,200.5 400.167,200.5 402.5,200.5C 406.833,200.5 411.167,200.5 415.5,200.5C 417.833,200.5 420.167,200.5 422.5,200.5C 426.833,200.5 431.167,200.5 435.5,200.5C 437.833,200.5 440.167,200.5 442.5,200.5C 446.833,200.5 451.167,200.5 455.5,200.5C 457.028,201.309 458.694,201.976 460.5,202.5C 463.963,203.099 467.296,204.099 470.5,205.5C 471.287,207.104 472.62,207.771 474.5,207.5C 476.86,209.853 479.527,211.853 482.5,213.5C 482.5,215.5 483.5,216.5 485.5,216.5C 487.273,219.06 489.273,221.393 491.5,223.5C 491.992,225.819 492.992,227.819 494.5,229.5C 495.892,232.007 496.892,234.673 497.5,237.5C 498.024,239.306 498.691,240.972 499.5,242.5C 500.162,246.466 500.495,250.466 500.5,254.5C 500.5,256.833 500.5,259.167 500.5,261.5C 499.579,267.263 498.246,272.93 496.5,278.5C 495.833,278.5 495.5,278.833 495.5,279.5C 489.508,290.794 480.842,299.461 469.5,305.5C 468.833,305.5 468.5,305.833 468.5,306.5C 463.022,308.596 457.355,309.929 451.5,310.5C 449.167,310.5 446.833,310.5 444.5,310.5C 440.167,310.5 435.833,310.5 431.5,310.5C 429.167,310.5 426.833,310.5 424.5,310.5C 420.167,310.5 415.833,310.5 411.5,310.5C 409.167,310.5 406.833,310.5 404.5,310.5C 400.167,310.5 395.833,310.5 391.5,310.5C 389.167,310.5 386.833,310.5 384.5,310.5C 380.167,310.5 375.833,310.5 371.5,310.5C 369.167,310.5 366.833,310.5 364.5,310.5C 360.167,310.5 355.833,310.5 351.5,310.5C 349.167,310.5 346.833,310.5 344.5,310.5C 340.167,310.5 335.833,310.5 331.5,310.5C 329.167,310.5 326.833,310.5 324.5,310.5C 320.167,310.5 315.833,310.5 311.5,310.5C 309.167,310.5 306.833,310.5 304.5,310.5C 300.167,310.5 295.833,310.5 291.5,310.5C 289.167,310.5 286.833,310.5 284.5,310.5C 280.167,310.5 275.833,310.5 271.5,310.5C 269.167,310.5 266.833,310.5 264.5,310.5C 260.167,310.5 255.833,310.5 251.5,310.5C 249.167,310.5 246.833,310.5 244.5,310.5C 240.167,310.5 235.833,310.5 231.5,310.5C 229.167,310.5 226.833,310.5 224.5,310.5C 220.167,310.5 215.833,310.5 211.5,310.5C 209.167,310.5 206.833,310.5 204.5,310.5C 200.167,310.5 195.833,310.5 191.5,310.5C 189.167,310.5 186.833,310.5 184.5,310.5C 180.167,310.5 175.833,310.5 171.5,310.5C 169.167,310.5 166.833,310.5 164.5,310.5C 160.167,310.5 155.833,310.5 151.5,310.5C 149.167,310.5 146.833,310.5 144.5,310.5C 140.167,310.5 135.833,310.5 131.5,310.5C 129.167,310.5 126.833,310.5 124.5,310.5C 120.167,310.5 115.833,310.5 111.5,310.5C 109.167,310.5 106.833,310.5 104.5,310.5C 100.167,310.5 95.8333,310.5 91.5,310.5C 89.1667,310.5 86.8333,310.5 84.5,310.5C 80.1667,310.5 75.8333,310.5 71.5,310.5C 69.1667,310.5 66.8333,310.5 64.5,310.5C 60.4517,310.605 56.4517,310.272 52.5,309.5C 50.9582,308.699 49.2915,308.366 47.5,308.5C 44.6865,306.93 41.6865,305.597 38.5,304.5C 37.3406,302.75 35.674,301.75 33.5,301.5C 31.3932,299.273 29.0599,297.273 26.5,295.5C 26.5,293.5 25.5,292.5 23.5,292.5C 21.8333,289.833 20.1667,287.167 18.5,284.5C 17.9744,282.77 16.9744,281.436 15.5,280.5C 14.5,277.167 13.5,273.833 12.5,270.5C 12.1249,268.302 11.4582,266.302 10.5,264.5C 10.5,260.5 10.5,256.5 10.5,252.5C 10.8333,249.833 11.1667,247.167 11.5,244.5C 12.9949,237.01 15.6616,230.01 19.5,223.5C 20.1667,223.5 20.5,223.167 20.5,222.5C 21.1667,222.5 21.5,222.167 21.5,221.5C 22.1667,221.5 22.5,221.167 22.5,220.5C 24.8605,217.473 27.5271,214.806 30.5,212.5C 31.1667,212.5 31.5,212.167 31.5,211.5C 32.1667,211.5 32.5,211.167 32.5,210.5C 33.1667,210.5 33.5,210.167 33.5,209.5C 39.9441,205.447 46.9441,202.781 54.5,201.5C 57.0961,200.735 59.7628,200.401 62.5,200.5 Z"/></g>
<g><path style="opacity:0.034" fill="#444440" d="M 511.5,205.5 C 511.5,207.167 511.5,208.833 511.5,210.5C 505.469,216.53 499.802,222.863 494.5,229.5C 492.992,227.819 491.992,225.819 491.5,223.5C 497.868,217.13 504.535,211.13 511.5,205.5 Z"/></g>
<g><path style="opacity:0.029" fill="#43433f" d="M 511.5,225.5 C 511.5,227.167 511.5,228.833 511.5,230.5C 507.86,234.806 503.86,238.806 499.5,242.5C 498.691,240.972 498.024,239.306 497.5,237.5C 501.872,233.126 506.539,229.126 511.5,225.5 Z"/></g>
<g><path style="opacity:0.026" fill="#43433f" d="M 11.5,244.5 C 11.1667,247.167 10.8333,249.833 10.5,252.5C 7.49921,255.332 4.33254,257.998 1,260.5C 0.143313,257.449 0.809979,254.783 3,252.5C 5.7028,249.629 8.53613,246.962 11.5,244.5 Z"/></g>
<g><path style="opacity:0.027" fill="#43443f" d="M 511.5,245.5 C 511.5,247.167 511.5,248.833 511.5,250.5C 508.194,254.473 504.527,258.14 500.5,261.5C 500.5,259.167 500.5,256.833 500.5,254.5C 503.876,251.122 507.543,248.122 511.5,245.5 Z"/></g>
<g><path style="opacity:0.027" fill="#444440" d="M 10.5,264.5 C 11.4582,266.302 12.1249,268.302 12.5,270.5C 8.83414,273.997 5.00081,277.331 1,280.5C 0.333333,278.833 0.333333,277.167 1,275.5C 4.00244,271.666 7.16911,268 10.5,264.5 Z"/></g>
<g><path style="opacity:0.042" fill="#43433f" d="M 511.5,265.5 C 511.5,267.167 511.5,268.833 511.5,270.5C 468.194,314.14 424.86,357.806 381.5,401.5C 379.167,401.5 376.833,401.5 374.5,401.5C 405.833,369.833 437.167,338.167 468.5,306.5C 469.167,306.5 469.5,306.167 469.5,305.5C 480.842,299.461 489.508,290.794 495.5,279.5C 496.167,279.5 496.5,279.167 496.5,278.5C 501.205,273.793 506.205,269.46 511.5,265.5 Z"/></g>
<g><path style="opacity:0.033" fill="#43433f" d="M 15.5,280.5 C 16.9744,281.436 17.9744,282.77 18.5,284.5C 12.8366,289.996 7.00326,295.329 1,300.5C 0.143313,297.449 0.809979,294.783 3,292.5C 7.03557,288.296 11.2022,284.296 15.5,280.5 Z"/></g>
<g><path style="opacity:0.042" fill="#43443f" d="M 511.5,285.5 C 511.5,287.167 511.5,288.833 511.5,290.5C 474.861,327.473 438.194,364.473 401.5,401.5C 399.167,401.5 396.833,401.5 394.5,401.5C 432.862,362.138 471.862,323.471 511.5,285.5 Z"/></g>
<g><path style="opacity:0.036" fill="#43433f" d="M 23.5,292.5 C 25.5,292.5 26.5,293.5 26.5,295.5C 18.5049,304.328 10.0049,312.662 1,320.5C 0.143313,317.449 0.809979,314.783 3,312.5C 9.70181,305.631 16.5351,298.964 23.5,292.5 Z"/></g>
<g><path style="opacity:0.038" fill="#43433f" d="M 33.5,301.5 C 35.674,301.75 37.3406,302.75 38.5,304.5C 26.1723,316.661 13.6723,328.661 1,340.5C 0.143313,337.449 0.809979,334.783 3,332.5C 13.3688,322.298 23.5355,311.965 33.5,301.5 Z"/></g>
<g><path style="opacity:0.041" fill="#43443f" d="M 511.5,305.5 C 511.5,307.167 511.5,308.833 511.5,310.5C 481.527,340.806 451.527,371.14 421.5,401.5C 419.167,401.5 416.833,401.5 414.5,401.5C 446.195,368.804 478.529,336.804 511.5,305.5 Z"/></g>
<g><path style="opacity:0.04" fill="#444440" d="M 47.5,308.5 C 49.2915,308.366 50.9582,308.699 52.5,309.5C 35.8395,326.994 18.6729,343.994 1,360.5C 0.143313,357.449 0.809979,354.783 3,352.5C 17.7015,337.631 32.5348,322.965 47.5,308.5 Z"/></g>
<g><path style="opacity:0.041" fill="#43443f" d="M 64.5,310.5 C 66.8333,310.5 69.1667,310.5 71.5,310.5C 48.5066,334.327 25.0066,357.66 1,380.5C 0.143313,377.449 0.809979,374.783 3,372.5C 23.7017,351.965 44.2017,331.299 64.5,310.5 Z"/></g>
<g><path style="opacity:0.041" fill="#43443f" d="M 84.5,310.5 C 86.8333,310.5 89.1667,310.5 91.5,310.5C 61.8401,340.993 31.6734,370.993 1,400.5C 0.143313,397.449 0.809979,394.783 3,392.5C 30.3682,365.299 57.5349,337.965 84.5,310.5 Z"/></g>
<g><path style="opacity:0.042" fill="#43443f" d="M 104.5,310.5 C 106.833,310.5 109.167,310.5 111.5,310.5C 75.1736,347.66 38.3402,384.326 1,420.5C 0.143313,417.449 0.809979,414.783 3,412.5C 37.0348,378.632 70.8681,344.632 104.5,310.5 Z"/></g>
<g><path style="opacity:0.042" fill="#43443f" d="M 124.5,310.5 C 126.833,310.5 129.167,310.5 131.5,310.5C 97.5,344.833 63.5,379.167 29.5,413.5C 28.8333,413.5 28.5,413.833 28.5,414.5C 27.8333,414.5 27.5,414.833 27.5,415.5C 26.8333,415.5 26.5,415.833 26.5,416.5C 25.8333,416.5 25.5,416.833 25.5,417.5C 24.8333,417.5 24.5,417.833 24.5,418.5C 23.8333,418.5 23.5,418.833 23.5,419.5C 22.8333,419.5 22.5,419.833 22.5,420.5C 15.5041,427.328 8.33743,433.995 1,440.5C 0.143313,437.449 0.809979,434.783 3,432.5C 43.7014,391.965 84.2014,351.299 124.5,310.5 Z"/></g>
<g><path style="opacity:0.043" fill="#43433f" d="M 144.5,310.5 C 146.833,310.5 149.167,310.5 151.5,310.5C 121.5,340.833 91.5,371.167 61.5,401.5C 58.7938,401.575 56.1272,401.908 53.5,402.5C 83.8333,371.833 114.167,341.167 144.5,310.5 Z"/></g>
<g><path style="opacity:0.043" fill="#43443f" d="M 164.5,310.5 C 166.833,310.5 169.167,310.5 171.5,310.5C 141.5,340.833 111.5,371.167 81.5,401.5C 79.1667,401.5 76.8333,401.5 74.5,401.5C 104.5,371.167 134.5,340.833 164.5,310.5 Z"/></g>
<g><path style="opacity:0.043" fill="#43443f" d="M 184.5,310.5 C 186.833,310.5 189.167,310.5 191.5,310.5C 161.5,340.833 131.5,371.167 101.5,401.5C 99.1667,401.5 96.8333,401.5 94.5,401.5C 124.5,371.167 154.5,340.833 184.5,310.5 Z"/></g>
<g><path style="opacity:0.043" fill="#43443f" d="M 204.5,310.5 C 206.833,310.5 209.167,310.5 211.5,310.5C 181.5,340.833 151.5,371.167 121.5,401.5C 119.167,401.5 116.833,401.5 114.5,401.5C 144.5,371.167 174.5,340.833 204.5,310.5 Z"/></g>
<g><path style="opacity:0.043" fill="#43443f" d="M 224.5,310.5 C 226.833,310.5 229.167,310.5 231.5,310.5C 201.5,340.833 171.5,371.167 141.5,401.5C 139.167,401.5 136.833,401.5 134.5,401.5C 164.5,371.167 194.5,340.833 224.5,310.5 Z"/></g>
<g><path style="opacity:0.043" fill="#43443f" d="M 244.5,310.5 C 246.833,310.5 249.167,310.5 251.5,310.5C 221.5,340.833 191.5,371.167 161.5,401.5C 159.167,401.5 156.833,401.5 154.5,401.5C 184.5,371.167 214.5,340.833 244.5,310.5 Z"/></g>
<g><path style="opacity:0.043" fill="#43443f" d="M 264.5,310.5 C 266.833,310.5 269.167,310.5 271.5,310.5C 241.5,340.833 211.5,371.167 181.5,401.5C 179.167,401.5 176.833,401.5 174.5,401.5C 204.5,371.167 234.5,340.833 264.5,310.5 Z"/></g>
<g><path style="opacity:0.043" fill="#43443f" d="M 284.5,310.5 C 286.833,310.5 289.167,310.5 291.5,310.5C 261.5,340.833 231.5,371.167 201.5,401.5C 199.167,401.5 196.833,401.5 194.5,401.5C 224.5,371.167 254.5,340.833 284.5,310.5 Z"/></g>
<g><path style="opacity:0.043" fill="#43443f" d="M 304.5,310.5 C 306.833,310.5 309.167,310.5 311.5,310.5C 281.5,340.833 251.5,371.167 221.5,401.5C 219.167,401.5 216.833,401.5 214.5,401.5C 244.5,371.167 274.5,340.833 304.5,310.5 Z"/></g>
<g><path style="opacity:0.043" fill="#43443f" d="M 324.5,310.5 C 326.833,310.5 329.167,310.5 331.5,310.5C 301.5,340.833 271.5,371.167 241.5,401.5C 239.167,401.5 236.833,401.5 234.5,401.5C 264.5,371.167 294.5,340.833 324.5,310.5 Z"/></g>
<g><path style="opacity:0.043" fill="#43443f" d="M 344.5,310.5 C 346.833,310.5 349.167,310.5 351.5,310.5C 321.5,340.833 291.5,371.167 261.5,401.5C 259.167,401.5 256.833,401.5 254.5,401.5C 284.5,371.167 314.5,340.833 344.5,310.5 Z"/></g>
<g><path style="opacity:0.043" fill="#43443f" d="M 364.5,310.5 C 366.833,310.5 369.167,310.5 371.5,310.5C 341.5,340.833 311.5,371.167 281.5,401.5C 279.167,401.5 276.833,401.5 274.5,401.5C 304.5,371.167 334.5,340.833 364.5,310.5 Z"/></g>
<g><path style="opacity:0.043" fill="#43443f" d="M 384.5,310.5 C 386.833,310.5 389.167,310.5 391.5,310.5C 361.5,340.833 331.5,371.167 301.5,401.5C 299.167,401.5 296.833,401.5 294.5,401.5C 324.5,371.167 354.5,340.833 384.5,310.5 Z"/></g>
<g><path style="opacity:0.043" fill="#43443f" d="M 404.5,310.5 C 406.833,310.5 409.167,310.5 411.5,310.5C 381.5,340.833 351.5,371.167 321.5,401.5C 319.167,401.5 316.833,401.5 314.5,401.5C 344.5,371.167 374.5,340.833 404.5,310.5 Z"/></g>
<g><path style="opacity:0.043" fill="#43443f" d="M 424.5,310.5 C 426.833,310.5 429.167,310.5 431.5,310.5C 401.5,340.833 371.5,371.167 341.5,401.5C 339.167,401.5 336.833,401.5 334.5,401.5C 364.5,371.167 394.5,340.833 424.5,310.5 Z"/></g>
<g><path style="opacity:0.043" fill="#43443f" d="M 444.5,310.5 C 446.833,310.5 449.167,310.5 451.5,310.5C 421.5,340.833 391.5,371.167 361.5,401.5C 359.167,401.5 356.833,401.5 354.5,401.5C 384.5,371.167 414.5,340.833 444.5,310.5 Z"/></g>
<g><path style="opacity:0.041" fill="#43443f" d="M 511.5,325.5 C 511.5,327.167 511.5,328.833 511.5,330.5C 488.194,354.14 464.861,377.806 441.5,401.5C 439.167,401.5 436.833,401.5 434.5,401.5C 459.529,375.471 485.196,350.137 511.5,325.5 Z"/></g>
<g><path style="opacity:0.04" fill="#444440" d="M 511.5,345.5 C 511.5,347.167 511.5,348.833 511.5,350.5C 494.896,367.605 478.062,384.605 461,401.5C 460.536,402.094 460.369,402.761 460.5,403.5C 458.5,402.833 456.5,402.167 454.5,401.5C 472.863,382.136 491.863,363.47 511.5,345.5 Z"/></g>
<g><path style="opacity:0.039" fill="#43433f" d="M 511.5,365.5 C 511.5,367.167 511.5,368.833 511.5,370.5C 499.563,382.938 487.396,395.272 475,407.5C 474.536,408.094 474.369,408.761 474.5,409.5C 472.999,408.248 471.332,407.248 469.5,406.5C 482.864,392.135 496.864,378.469 511.5,365.5 Z"/></g>
<g><path style="opacity:0.037" fill="#43433f" d="M 511.5,385.5 C 511.5,387.167 511.5,388.833 511.5,390.5C 502.861,399.473 494.194,408.473 485.5,417.5C 483.659,416.598 482.326,415.264 481.5,413.5C 491.199,403.8 501.199,394.466 511.5,385.5 Z"/></g>
<g><path style="opacity:0.998" fill="#333333" d="M 61.5,401.5 C 65.8333,401.5 70.1667,401.5 74.5,401.5C 76.8333,401.5 79.1667,401.5 81.5,401.5C 85.8333,401.5 90.1667,401.5 94.5,401.5C 96.8333,401.5 99.1667,401.5 101.5,401.5C 105.833,401.5 110.167,401.5 114.5,401.5C 116.833,401.5 119.167,401.5 121.5,401.5C 125.833,401.5 130.167,401.5 134.5,401.5C 136.833,401.5 139.167,401.5 141.5,401.5C 145.833,401.5 150.167,401.5 154.5,401.5C 156.833,401.5 159.167,401.5 161.5,401.5C 165.833,401.5 170.167,401.5 174.5,401.5C 176.833,401.5 179.167,401.5 181.5,401.5C 185.833,401.5 190.167,401.5 194.5,401.5C 196.833,401.5 199.167,401.5 201.5,401.5C 205.833,401.5 210.167,401.5 214.5,401.5C 216.833,401.5 219.167,401.5 221.5,401.5C 225.833,401.5 230.167,401.5 234.5,401.5C 236.833,401.5 239.167,401.5 241.5,401.5C 245.833,401.5 250.167,401.5 254.5,401.5C 256.833,401.5 259.167,401.5 261.5,401.5C 265.833,401.5 270.167,401.5 274.5,401.5C 276.833,401.5 279.167,401.5 281.5,401.5C 285.833,401.5 290.167,401.5 294.5,401.5C 296.833,401.5 299.167,401.5 301.5,401.5C 305.833,401.5 310.167,401.5 314.5,401.5C 316.833,401.5 319.167,401.5 321.5,401.5C 325.833,401.5 330.167,401.5 334.5,401.5C 336.833,401.5 339.167,401.5 341.5,401.5C 345.833,401.5 350.167,401.5 354.5,401.5C 356.833,401.5 359.167,401.5 361.5,401.5C 365.833,401.5 370.167,401.5 374.5,401.5C 376.833,401.5 379.167,401.5 381.5,401.5C 385.833,401.5 390.167,401.5 394.5,401.5C 396.833,401.5 399.167,401.5 401.5,401.5C 405.833,401.5 410.167,401.5 414.5,401.5C 416.833,401.5 419.167,401.5 421.5,401.5C 425.833,401.5 430.167,401.5 434.5,401.5C 436.833,401.5 439.167,401.5 441.5,401.5C 445.833,401.5 450.167,401.5 454.5,401.5C 456.5,402.167 458.5,402.833 460.5,403.5C 463.715,403.905 466.715,404.905 469.5,406.5C 471.332,407.248 472.999,408.248 474.5,409.5C 476.85,410.861 479.184,412.194 481.5,413.5C 482.326,415.264 483.659,416.598 485.5,417.5C 487.273,420.06 489.273,422.393 491.5,424.5C 491.66,426.153 492.326,427.486 493.5,428.5C 495.108,431.382 496.441,434.382 497.5,437.5C 497.796,439.403 498.463,441.07 499.5,442.5C 500.021,446.481 500.354,450.481 500.5,454.5C 500.5,456.833 500.5,459.167 500.5,461.5C 499.914,467.351 498.581,473.018 496.5,478.5C 490.5,491.833 480.833,501.5 467.5,507.5C 466.833,507.5 466.5,507.833 466.5,508.5C 462.677,509.336 459.011,510.336 455.5,511.5C 321.833,511.5 188.167,511.5 54.5,511.5C 53.1667,510.167 51.8333,510.167 50.5,511.5C 48.8333,511.5 47.1667,511.5 45.5,511.5C 46.5624,510.425 46.5624,509.425 45.5,508.5C 42.8068,507.153 40.1401,505.82 37.5,504.5C 36.1667,503.5 34.8333,502.5 33.5,501.5C 30.9906,500.079 28.6572,498.412 26.5,496.5C 26.0432,494.227 24.7099,492.894 22.5,492.5C 20.8302,489.825 19.1635,487.159 17.5,484.5C 17.3404,482.847 16.6737,481.514 15.5,480.5C 14.1009,477.301 13.1009,473.968 12.5,470.5C 11.9759,468.694 11.3092,467.028 10.5,465.5C 10.5,461.167 10.5,456.833 10.5,452.5C 10.8333,449.833 11.1667,447.167 11.5,444.5C 13.5738,435.691 17.2405,427.691 22.5,420.5C 23.1667,420.5 23.5,420.167 23.5,419.5C 24.1667,419.5 24.5,419.167 24.5,418.5C 25.1667,418.5 25.5,418.167 25.5,417.5C 26.1667,417.5 26.5,417.167 26.5,416.5C 27.1667,416.5 27.5,416.167 27.5,415.5C 28.1667,415.5 28.5,415.167 28.5,414.5C 29.1667,414.5 29.5,414.167 29.5,413.5C 36.7019,408.235 44.7019,404.568 53.5,402.5C 56.1272,401.908 58.7938,401.575 61.5,401.5 Z"/></g>
<g><path style="opacity:0.034" fill="#43443f" d="M 511.5,405.5 C 511.5,407.167 511.5,408.833 511.5,410.5C 505.86,416.806 499.86,422.806 493.5,428.5C 492.326,427.486 491.66,426.153 491.5,424.5C 497.535,417.464 504.202,411.131 511.5,405.5 Z"/></g>
<g><path style="opacity:0.03" fill="#43443f" d="M 511.5,425.5 C 511.5,427.167 511.5,428.833 511.5,430.5C 507.86,434.806 503.86,438.806 499.5,442.5C 498.463,441.07 497.796,439.403 497.5,437.5C 501.872,433.126 506.539,429.126 511.5,425.5 Z"/></g>
<g><path style="opacity:0.026" fill="#43433f" d="M 11.5,444.5 C 11.1667,447.167 10.8333,449.833 10.5,452.5C 7.49921,455.332 4.33254,457.998 1,460.5C 0.143313,457.449 0.809979,454.783 3,452.5C 5.7028,449.629 8.53613,446.962 11.5,444.5 Z"/></g>
<g><path style="opacity:0.027" fill="#43443f" d="M 511.5,445.5 C 511.5,447.167 511.5,448.833 511.5,450.5C 508.194,454.473 504.527,458.14 500.5,461.5C 500.5,459.167 500.5,456.833 500.5,454.5C 503.876,451.122 507.543,448.122 511.5,445.5 Z"/></g>
<g><path style="opacity:0.027" fill="#444440" d="M 10.5,465.5 C 11.3092,467.028 11.9759,468.694 12.5,470.5C 8.83414,473.997 5.00081,477.331 1,480.5C 0.333333,478.833 0.333333,477.167 1,475.5C 3.66817,471.666 6.83484,468.333 10.5,465.5 Z"/></g>
<g><path style="opacity:0.032" fill="#43433f" d="M 511.5,465.5 C 511.5,467.167 511.5,468.833 511.5,470.5C 498.167,484.5 484.5,498.167 470.5,511.5C 468.833,511.5 467.167,511.5 465.5,511.5C 466.11,510.609 466.443,509.609 466.5,508.5C 467.167,508.5 467.5,508.167 467.5,507.5C 480.833,501.5 490.5,491.833 496.5,478.5C 501.205,473.793 506.205,469.46 511.5,465.5 Z"/></g>
<g><path style="opacity:0.032" fill="#43433f" d="M 15.5,480.5 C 16.6737,481.514 17.3404,482.847 17.5,484.5C 12.5035,490.33 7.00348,495.663 1,500.5C 0.143313,497.449 0.809979,494.783 3,492.5C 7.03557,488.296 11.2022,484.296 15.5,480.5 Z"/></g>
<g><path style="opacity:0.029" fill="#43443f" d="M 511.5,485.5 C 511.5,487.167 511.5,488.833 511.5,490.5C 504.833,497.833 497.833,504.833 490.5,511.5C 488.833,511.5 487.167,511.5 485.5,511.5C 493.167,501.833 501.833,493.167 511.5,485.5 Z"/></g>
<g><path style="opacity:0.033" fill="#43433f" d="M 22.5,492.5 C 24.7099,492.894 26.0432,494.227 26.5,496.5C 21.1405,501.528 15.8071,506.528 10.5,511.5C 8.83333,511.5 7.16667,511.5 5.5,511.5C 10.796,504.869 16.4626,498.535 22.5,492.5 Z"/></g>
<g><path style="opacity:0.022" fill="#43433f" d="M 33.5,501.5 C 34.8333,502.5 36.1667,503.5 37.5,504.5C 35.4728,507.194 33.1395,509.527 30.5,511.5C 28.8333,511.5 27.1667,511.5 25.5,511.5C 27.7867,507.878 30.4534,504.545 33.5,501.5 Z"/></g>
<g><path style="opacity:0.009" fill="#43443f" d="M 511.5,505.5 C 511.5,507.167 511.5,508.833 511.5,510.5C 510.833,510.5 510.5,510.833 510.5,511.5C 508.833,511.5 507.167,511.5 505.5,511.5C 506.5,508.5 508.5,506.5 511.5,505.5 Z"/></g>
</svg>
