<?xml version="1.0" standalone="no"?>
<!DOCTYPE svg PUBLIC "-//W3C//DTD SVG 20010904//EN"
 "http://www.w3.org/TR/2001/REC-SVG-20010904/DTD/svg10.dtd">
<svg version="1.0" xmlns="http://www.w3.org/2000/svg"
 width="800.000000pt" height="800.000000pt" viewBox="0 0 800.000000 800.000000"
 preserveAspectRatio="xMidYMid meet">

<g transform="translate(0.000000,800.000000) scale(0.100000,-0.100000)"
fill="#FFFFFF" stroke="none">
<path d="M5734 7991 c-103 -26 -62 13 -1990 -1915 -2103 -2102 -1919 -1903
-1919 -2076 0 -172 -182 25 1904 -2063 1015 -1016 1866 -1861 1891 -1877 185
-118 425 -50 527 150 25 49 28 65 28 150 0 173 171 -14 -1764 1923 l-1716
1717 1716 1718 c1935 1936 1764 1749 1764 1922 0 85 -3 101 -28 150 -64 124
-180 201 -312 206 -38 2 -84 0 -101 -5z"/>
</g>
</svg>
