<?xml version="1.0" standalone="no"?>
<!DOCTYPE svg PUBLIC "-//W3C//DTD SVG 20010904//EN"
 "http://www.w3.org/TR/2001/REC-SVG-20010904/DTD/svg10.dtd">
<svg version="1.0" xmlns="http://www.w3.org/2000/svg"
 width="286.000000pt" height="259.000000pt" viewBox="0 0 286.000000 259.000000"
 preserveAspectRatio="xMidYMid meet">
<metadata>
Created by potrace 1.16, written by Peter Selinger 2001-2019
</metadata>
<g transform="translate(0.000000,259.000000) scale(0.100000,-0.100000)"
fill="#000000" stroke="none">
<path d="M1411 2411 c-13 -3 -33 -19 -44 -34 l-21 -27 33 -372 c37 -415 43
-441 98 -446 56 -6 62 17 99 435 24 265 31 380 24 398 -17 45 -112 68 -189 46z"/>
<path d="M645 2049 c-59 -56 -71 -85 -53 -128 15 -33 557 -490 607 -511 24
-10 38 -10 56 -2 49 23 27 84 -77 208 -275 328 -393 466 -408 474 -39 21 -70
11 -125 -41z"/>
<path d="M2185 2088 c-11 -5 -54 -51 -95 -101 -41 -51 -146 -176 -233 -279
-87 -103 -165 -204 -173 -224 -14 -32 -13 -38 1 -60 34 -52 64 -34 390 239
289 241 290 242 293 284 3 36 -2 47 -34 83 -58 64 -103 82 -149 58z"/>
<path d="M1415 1292 c-83 -31 -229 -96 -803 -354 -179 -81 -225 -106 -233
-125 -12 -31 -12 -95 0 -126 8 -21 152 -138 424 -345 44 -33 78 -52 96 -52 15
0 96 27 181 60 85 33 161 60 170 60 16 0 95 -52 218 -143 76 -56 141 -77 237
-77 136 0 260 55 370 165 223 223 236 552 26 694 -52 35 -291 171 -405 230
-67 34 -206 41 -281 13z m35 -138 c145 -83 286 -167 298 -177 18 -14 8 -22
-76 -56 -71 -30 -75 -30 -105 -14 -66 34 -347 215 -347 224 0 9 43 30 110 54
39 14 44 13 120 -31z m-816 -539 c107 -79 200 -153 205 -164 13 -24 14 -68 2
-75 -15 -10 -404 296 -415 325 -8 25 -3 59 8 59 3 0 93 -65 200 -145z"/>
</g>
</svg>
